<?xml version="1.0" standalone="no"?>
<!DOCTYPE svg PUBLIC "-//W3C//DTD SVG 1.1//EN" "http://www.w3.org/Graphics/SVG/1.1/DTD/svg11.dtd" >
<svg xmlns="http://www.w3.org/2000/svg" xmlns:xlink="http://www.w3.org/1999/xlink" version="1.1">
<metadata>
Created by FontForge 20190801 at Sat Jan 11 14:24:39 2014
 By www-data
(c) 2013 Klim Type Foundry. All Rights Reserved.
</metadata>
<defs>
<font id="FoundersGroteskMono" horiz-adv-x="614" >
  <font-face 
    font-family="Founders Grotesk Mono"
    font-weight="400"
    font-stretch="normal"
    units-per-em="1000"
    panose-1="2 6 5 9 4 5 2 4 2 4"
    ascent="770"
    descent="-230"
    x-height="437"
    cap-height="630"
    bbox="-10 -241 676 865"
    underline-thickness="50"
    underline-position="-100"
    unicode-range="U+0020-2265"
  />
<missing-glyph 
 />
    <glyph glyph-name=".notdef" 
 />
    <glyph glyph-name="NULL" horiz-adv-x="0" 
 />
    <glyph glyph-name="CR" 
 />
    <glyph glyph-name="space" unicode=" " 
 />
    <glyph glyph-name="exclam" unicode="!" 
d="M260 454v176h94v-176l-27 -246h-40zM369 0h-124v124h124v-124z" />
    <glyph glyph-name="quotedbl" unicode="&#x22;" 
d="M436 349h-64l-15 281h94zM241 349h-64l-14 281h93z" />
    <glyph glyph-name="numbersign" unicode="#" 
d="M216 225h149l42 180h-149zM381 0h-70l40 167h-149l-40 -167h-70l40 167h-104l10 58h108l42 180h-118l11 59h121l40 166h70l-40 -166h149l40 166h70l-40 -166h105l-11 -59h-108l-42 -180h118l-10 -58h-122z" />
    <glyph glyph-name="dollar" unicode="$" 
d="M272 369l15 -3v207c-77 -3 -129 -44 -129 -109c0 -55 37 -78 114 -95zM372 265l-29 7v-214c83 5 140 45 140 110c0 53 -35 78 -111 97zM343 -11v-107h-56v108c-107 9 -198 63 -238 143l54 63c33 -77 103 -125 184 -137v225l-52 12c-105 23 -158 78 -158 164
c0 52 19 95 58 128c39 34 90 52 152 54v102h56v-105c91 -12 160 -57 196 -121l-56 -59c-26 59 -73 96 -140 109v-215l48 -11c109 -25 172 -71 172 -171c0 -53 -21 -96 -62 -129c-41 -32 -94 -50 -158 -53z" />
    <glyph glyph-name="percent" unicode="%" 
d="M22 494c0 41 13 75 40 104s58 44 95 44s69 -15 95 -44c27 -29 40 -63 40 -104c0 -40 -13 -74 -40 -103c-26 -29 -58 -43 -95 -43s-68 14 -95 43s-40 63 -40 103zM100 0h-60l473 630h60zM237 494c0 51 -35 93 -80 93s-81 -42 -81 -93c0 -49 36 -92 81 -92s80 43 80 92z
M456 -12c-37 0 -68 14 -95 43c-26 29 -39 63 -39 104s13 75 39 104c27 29 58 43 95 43s69 -14 95 -43c27 -29 40 -63 40 -104s-13 -75 -40 -104c-26 -29 -58 -43 -95 -43zM376 135c0 -51 35 -93 80 -93s81 44 81 93s-36 92 -81 92s-80 -43 -80 -92z" />
    <glyph glyph-name="ampersand" unicode="&#x26;" 
d="M175 488c0 -30 19 -67 56 -110c79 39 106 69 106 122c0 43 -29 78 -78 78s-84 -33 -84 -90zM230 55c49 0 93 17 134 50l-2 3l-160 187c-63 -35 -91 -69 -91 -132c0 -65 50 -108 119 -108zM533 -8c-45 0 -78 17 -125 65c-55 -46 -115 -69 -182 -69c-57 0 -104 15 -141 46
s-55 74 -55 127c0 80 44 132 131 181c-43 52 -64 100 -64 145c0 92 66 155 161 155s152 -58 152 -141c0 -73 -44 -119 -139 -170l145 -170c33 45 55 99 67 160l72 -6c-19 -79 -51 -147 -96 -204c31 -35 61 -52 91 -52c17 0 34 2 49 6v-56c-19 -11 -41 -17 -66 -17z" />
    <glyph glyph-name="quotesingle" unicode="'" 
d="M339 349h-65l-14 281h93z" />
    <glyph glyph-name="parenleft" unicode="(" 
d="M381 660h102c-147 -103 -220 -227 -220 -372s73 -269 220 -372h-102c-128 99 -200 229 -200 372s72 273 200 372z" />
    <glyph glyph-name="parenright" unicode=")" 
d="M233 -84h-102c147 103 220 227 220 372s-73 269 -220 372h102c128 -99 200 -229 200 -372s-72 -273 -200 -372z" />
    <glyph glyph-name="asterisk" unicode="*" 
d="M261 459l-120 39l19 55l118 -41v127h58v-126l118 41l18 -55l-119 -38l75 -101l-48 -34l-73 100l-73 -102l-46 36z" />
    <glyph glyph-name="plus" unicode="+" 
d="M562 347v-70h-220v-221h-70v221h-220v70h220v221h70v-221h220z" />
    <glyph glyph-name="comma" unicode="," 
d="M303 5h-60v120h128v-142c0 -88 -61 -137 -164 -137v60c61 0 96 17 96 76v23z" />
    <glyph glyph-name="hyphen" unicode="-" 
d="M430 215h-246v78h246v-78z" />
    <glyph glyph-name="period" unicode="." 
d="M371 0h-128v128h128v-128z" />
    <glyph glyph-name="slash" unicode="/" 
d="M131 -83h-86l438 772h86z" />
    <glyph glyph-name="zero" unicode="0" 
d="M492 556c46 -57 69 -138 69 -241s-23 -184 -69 -241s-108 -86 -185 -86s-139 29 -185 86s-69 138 -69 241s23 184 69 241s108 86 185 86s139 -29 185 -86zM307 572c-104 0 -164 -88 -164 -257s60 -257 164 -257c105 0 164 88 164 257s-59 257 -164 257z" />
    <glyph glyph-name="one" unicode="1" 
d="M557 72v-72h-471v72h199v404h-176v64h53c53 0 89 6 109 19s35 38 44 75h56v-562h186z" />
    <glyph glyph-name="two" unicode="2" 
d="M325 173l-117 -98h327v-75h-463v50l179 153c32 27 56 48 71 62c15 15 32 33 51 55c39 44 52 81 52 125c0 76 -45 124 -128 124c-85 0 -133 -53 -133 -145c0 -21 3 -40 10 -57l-87 4c-6 20 -9 40 -9 59c0 65 20 116 60 154c40 39 94 58 161 58c140 0 216 -80 216 -193
c0 -55 -21 -105 -65 -156c-21 -25 -41 -45 -58 -61s-39 -36 -67 -59z" />
    <glyph glyph-name="three" unicode="3" 
d="M161 425l-82 26c7 57 31 103 72 138s93 53 157 53c136 0 217 -70 217 -177c0 -39 -13 -72 -40 -99c-26 -27 -57 -43 -93 -48c41 -3 76 -19 103 -48c28 -28 42 -62 42 -103c0 -53 -21 -96 -63 -129c-41 -33 -96 -50 -165 -50c-139 0 -232 71 -247 190l83 26
c5 -92 69 -146 164 -146c84 0 140 42 140 115c0 69 -61 110 -145 110c-10 0 -30 -2 -60 -6v79c28 -4 48 -6 61 -6c76 0 134 32 134 107c0 69 -47 115 -132 115s-141 -55 -146 -147z" />
    <glyph glyph-name="four" unicode="4" 
d="M345 630h106v-391h115v-71h-115v-168h-85v168h-321v82zM366 239v313l-247 -313h247z" />
    <glyph glyph-name="five" unicode="5" 
d="M67 188l86 18c3 -91 62 -149 161 -149c89 0 147 60 147 152c0 85 -56 146 -144 146c-60 0 -105 -23 -134 -70l-86 15c22 131 34 241 37 330h373c7 -55 -16 -82 -69 -82c-35 0 -115 5 -239 15c-1 -23 -5 -60 -11 -111c-5 -51 -10 -84 -13 -99c35 46 87 69 156 69
c67 0 119 -20 157 -61s57 -91 57 -152c0 -65 -22 -118 -66 -159c-43 -41 -99 -62 -167 -62c-69 0 -126 18 -171 55s-69 85 -74 145z" />
    <glyph glyph-name="six" unicode="6" 
d="M549 489l-78 -25c-15 73 -60 109 -135 109c-63 0 -110 -28 -142 -83c-31 -55 -46 -126 -43 -212c21 79 87 132 186 132c63 0 114 -20 153 -59c40 -39 60 -88 60 -149c0 -63 -21 -115 -63 -155c-41 -39 -96 -59 -164 -59c-160 0 -251 119 -251 315c0 101 23 183 69 245
c47 63 112 94 196 94c109 0 189 -58 212 -153zM323 58c87 0 144 58 144 143s-58 141 -147 141s-147 -56 -147 -141s61 -143 150 -143z" />
    <glyph glyph-name="seven" unicode="7" 
d="M444 552h-376v78h474v-53c-142 -149 -214 -341 -215 -577h-94c1 109 21 212 58 307s88 177 153 245z" />
    <glyph glyph-name="eight" unicode="8" 
d="M68 167c0 39 13 73 40 100s58 44 94 51c-69 24 -112 77 -112 149c0 53 20 96 61 127c41 32 93 48 157 48s116 -16 156 -48c41 -31 61 -74 61 -127c0 -72 -43 -125 -112 -149c37 -7 68 -24 94 -51c27 -27 40 -61 40 -100c0 -111 -90 -179 -239 -179s-240 68 -240 179z
M308 349c79 0 131 41 131 112c0 76 -51 117 -131 117s-132 -41 -132 -117c0 -71 52 -112 132 -112zM308 53c95 0 149 43 149 118c0 73 -53 113 -149 113s-150 -40 -150 -113c0 -75 54 -118 150 -118z" />
    <glyph glyph-name="nine" unicode="9" 
d="M291 572c-87 0 -144 -58 -144 -143s58 -141 147 -141s147 56 147 141s-61 143 -150 143zM65 141l78 25c15 -73 60 -109 135 -109c63 0 110 28 141 83c32 55 47 126 44 212c-21 -79 -87 -132 -186 -132c-63 0 -114 19 -154 58c-39 39 -59 89 -59 150c0 63 21 115 62 154
c42 40 97 60 165 60c160 0 251 -119 251 -315c0 -101 -23 -183 -70 -246c-46 -62 -111 -93 -195 -93c-109 0 -189 58 -212 153z" />
    <glyph glyph-name="colon" unicode=":" 
d="M371 311h-128v128h128v-128zM371 0h-128v128h128v-128z" />
    <glyph glyph-name="semicolon" unicode=";" 
d="M371 311h-128v128h128v-128zM303 5h-60v120h128v-142c0 -88 -61 -137 -164 -137v60c61 0 96 17 96 76v23z" />
    <glyph glyph-name="less" unicode="&#x3c;" 
d="M502 56l-390 209v90l390 208v-81l-326 -172l326 -172v-82z" />
    <glyph glyph-name="equal" unicode="=" 
d="M562 357h-511v68h511v-68zM562 196h-511v68h511v-68z" />
    <glyph glyph-name="greater" unicode="&#x3e;" 
d="M112 563l390 -208v-90l-390 -209v82l325 172l-325 172v81z" />
    <glyph glyph-name="question" unicode="?" 
d="M340 204h-78c1 49 21 79 73 116l18 13l20 15c5 4 28 21 33 28s19 23 23 34s8 27 8 43c0 69 -46 119 -126 119c-87 0 -135 -55 -135 -148c0 -16 1 -30 4 -41l-89 5c-2 15 -3 29 -3 42c0 64 20 115 61 154s96 58 163 58c69 0 122 -18 159 -54c37 -35 56 -80 56 -133
c0 -27 -7 -53 -21 -76s-29 -41 -45 -54c-15 -13 -38 -30 -69 -51c-36 -25 -49 -41 -52 -70zM361 0h-123v121h123v-121z" />
    <glyph glyph-name="at" unicode="@" 
d="M451 93c53 0 89 64 89 183c0 71 -18 127 -55 170c-36 43 -87 65 -152 65c-79 0 -141 -30 -188 -89s-70 -135 -70 -229c0 -83 22 -149 65 -197c44 -49 100 -73 168 -73c62 0 119 15 170 44l18 -40c-53 -37 -116 -56 -189 -56c-83 0 -152 29 -207 86s-82 135 -82 236
c0 108 29 197 86 266c58 69 134 104 229 104c81 0 146 -27 193 -80s71 -122 71 -207c0 -152 -67 -236 -154 -236c-44 0 -74 26 -79 66c-20 -41 -58 -66 -101 -66c-68 0 -110 53 -110 137c0 54 14 103 43 148s67 67 114 67c43 0 76 -26 87 -63l13 55h58l-50 -233
c-7 -39 4 -58 33 -58zM369 205l5 23c13 64 -10 108 -54 108c-31 0 -55 -17 -73 -50s-27 -69 -27 -109c0 -52 19 -78 56 -78c41 0 81 38 93 106z" />
    <glyph glyph-name="A" unicode="A" 
d="M306 534h-4l-90 -280h185zM570 0h-91l-60 184h-230l-59 -184h-86l210 630h106z" />
    <glyph glyph-name="B" unicode="B" 
d="M393 327c88 -13 153 -69 153 -154c0 -109 -81 -173 -226 -173h-234v630h223c149 0 219 -63 219 -168c0 -71 -59 -123 -135 -135zM313 558h-142v-200h142c86 0 129 33 129 99c0 67 -43 101 -129 101zM318 291h-147v-218h147c93 0 143 39 143 107c0 71 -50 111 -143 111z
" />
    <glyph glyph-name="C" unicode="C" 
d="M476 221l83 -42c-31 -119 -115 -191 -238 -191c-76 0 -140 30 -191 91s-77 140 -77 236s26 174 77 235c52 61 116 92 193 92c111 0 191 -62 227 -166l-79 -48c-21 87 -74 139 -151 139c-50 0 -92 -23 -126 -69s-51 -107 -51 -183c0 -75 17 -136 50 -183
c34 -46 76 -69 125 -69c87 0 139 53 158 158z" />
    <glyph glyph-name="D" unicode="D" 
d="M244 0h-166v630h166c97 0 175 -28 232 -84s86 -133 86 -231s-29 -175 -86 -231s-135 -84 -232 -84zM166 558v-486h68c153 0 237 88 237 243s-84 243 -237 243h-68z" />
    <glyph glyph-name="E" unicode="E" 
d="M200 74h331v-74h-417v630h408v-74h-322v-192h229v-75h-229v-215z" />
    <glyph glyph-name="F" unicode="F" 
d="M201 285v-285h-87v630h422v-74h-335v-196h252v-75h-252z" />
    <glyph glyph-name="G" unicode="G" 
d="M304 -12c-73 0 -133 30 -182 91c-48 61 -72 140 -72 236s25 174 76 235s115 92 192 92c109 0 186 -60 222 -163l-79 -49c-20 85 -71 137 -147 137c-50 0 -92 -23 -125 -69s-49 -107 -49 -183c0 -77 16 -138 48 -184s72 -69 121 -69c93 0 150 72 158 183h-170v66h244v-311
h-57l-11 114c-21 -79 -86 -126 -169 -126z" />
    <glyph glyph-name="H" unicode="H" 
d="M160 289v-289h-88v630h88v-266h294v266h88v-630h-88v289h-294z" />
    <glyph glyph-name="I" unicode="I" 
d="M528 75v-75h-443v75h178v480h-178v75h443v-75h-177v-480h177z" />
    <glyph glyph-name="J" unicode="J" 
d="M424 220v410h88v-411c0 -144 -87 -231 -220 -231c-72 0 -128 23 -169 70c-40 47 -57 108 -52 184l91 21c-15 -121 32 -199 131 -199c87 0 131 52 131 156z" />
    <glyph glyph-name="K" unicode="K" 
d="M329 372l267 -372h-104l-224 312l-99 -112v-200h-88v630h88v-330l295 330h103z" />
    <glyph glyph-name="L" unicode="L" 
d="M120 0v630h88v-554h325v-76h-413z" />
    <glyph glyph-name="M" unicode="M" 
d="M454 555l-123 -369h-46l-127 369h-6v-555h-81v630h129l109 -324h5l101 324h128v-630h-83v555h-6z" />
    <glyph glyph-name="N" unicode="N" 
d="M72 630h102l287 -488v488h81v-630h-77l-312 520v-520h-81v630z" />
    <glyph glyph-name="O" unicode="O" 
d="M495 551c49 -61 74 -139 74 -236s-25 -175 -74 -236s-111 -91 -188 -91s-140 30 -189 91s-73 139 -73 236s24 175 73 236s112 91 189 91s139 -30 188 -91zM432 132c31 45 47 106 47 183s-16 138 -47 183s-73 68 -125 68s-94 -23 -125 -68s-47 -106 -47 -183
s16 -138 47 -183s73 -68 125 -68s94 23 125 68z" />
    <glyph glyph-name="P" unicode="P" 
d="M314 252h-129v-252h-87v630h216c155 0 245 -70 245 -189s-90 -189 -245 -189zM185 557v-232h127c107 0 161 39 161 116s-54 116 -161 116h-127z" />
    <glyph glyph-name="Q" unicode="Q" 
d="M403 -167c-42 0 -76 14 -101 43s-35 67 -30 114c-67 9 -122 44 -164 103s-63 133 -63 222c0 97 24 175 73 236s112 91 189 91s139 -30 188 -91s74 -139 74 -236c0 -88 -21 -161 -62 -220s-94 -93 -161 -104c-7 -53 18 -89 65 -89c34 0 62 15 85 45l20 -66
c-27 -32 -64 -48 -113 -48zM432 132c31 45 47 106 47 183s-16 138 -47 183s-73 68 -125 68s-94 -23 -125 -68s-47 -106 -47 -183s16 -138 47 -183s73 -68 125 -68s94 23 125 68z" />
    <glyph glyph-name="R" unicode="R" 
d="M306 557h-146v-211h139c105 0 157 35 157 106c0 70 -50 105 -150 105zM583 7v-7h-105c-21 9 -35 51 -42 127c-8 103 -42 149 -127 149h-149v-276h-86v630h238c155 0 232 -66 232 -175c0 -39 -15 -72 -45 -99s-66 -42 -108 -45c67 -11 108 -59 122 -144
c16 -101 34 -139 70 -160z" />
    <glyph glyph-name="S" unicode="S" 
d="M52 132l53 66c37 -88 120 -138 209 -138s149 38 149 109c0 53 -34 79 -106 96l-125 30c-101 23 -151 78 -151 165c0 53 19 97 58 131s90 51 152 51c108 0 191 -49 232 -124l-56 -61c-31 68 -95 113 -176 113c-79 0 -128 -39 -128 -106c0 -55 35 -77 107 -94l111 -26
c103 -24 163 -73 163 -173c0 -56 -22 -101 -65 -134s-98 -49 -165 -49c-58 0 -111 13 -159 38c-48 26 -82 61 -103 106z" />
    <glyph glyph-name="T" unicode="T" 
d="M349 554v-554h-87v554h-223v76h536v-76h-226z" />
    <glyph glyph-name="U" unicode="U" 
d="M308 -12c-69 0 -126 22 -171 67c-44 45 -66 111 -66 198v377h87v-371c0 -130 50 -195 150 -195c97 0 150 67 150 195v371h86v-377c0 -87 -22 -153 -67 -198s-101 -67 -169 -67z" />
    <glyph glyph-name="V" unicode="V" 
d="M570 630l-211 -630h-104l-211 630h94l170 -527h4l168 527h90z" />
    <glyph glyph-name="W" unicode="W" 
d="M269 531h77l94 -419h6l58 518h81l-82 -630h-103l-90 419h-6l-92 -419h-103l-81 630h86l58 -516h5z" />
    <glyph glyph-name="X" unicode="X" 
d="M304 261l-172 -261h-92l218 327l-198 303h100l149 -231l151 231h93l-198 -297l218 -333h-101z" />
    <glyph glyph-name="Y" unicode="Y" 
d="M132 630l179 -285l177 285h93l-232 -367v-263h-84v263l-232 367h99z" />
    <glyph glyph-name="Z" unicode="Z" 
d="M521 562l-345 -486h355v-76h-461v65l345 489h-341v76h447v-68z" />
    <glyph glyph-name="bracketleft" unicode="[" 
d="M478 597h-201v-618h201v-63h-279v744h279v-63z" />
    <glyph glyph-name="backslash" unicode="\" 
d="M131 689l438 -772h-86l-438 772h86z" />
    <glyph glyph-name="bracketright" unicode="]" 
d="M337 -21v618h-201v63h279v-744h-279v63h201z" />
    <glyph glyph-name="asciicircum" unicode="^" 
d="M129 388l139 242h78l139 -242h-82l-96 178l-96 -178h-82z" />
    <glyph glyph-name="underscore" unicode="_" 
d="M485 -120h-356v65h356v-65z" />
    <glyph glyph-name="grave" unicode="`" 
d="M334 676l58 -162h-56l-115 162h113z" />
    <glyph glyph-name="a" unicode="a" 
d="M173 301l-74 27c32 72 105 121 204 121c101 0 161 -44 161 -131v-213c0 -32 22 -49 47 -49c19 0 36 7 51 20l5 -62c-23 -16 -47 -24 -72 -24c-57 0 -104 42 -108 97c-23 -56 -88 -96 -167 -96c-81 0 -139 50 -139 126c0 75 59 111 171 136l134 31v37c0 35 -26 62 -85 62
c-65 0 -113 -35 -128 -82zM386 176v55l-114 -27c-75 -19 -108 -37 -108 -81c0 -40 28 -69 76 -69c39 0 73 12 102 37s44 53 44 85z" />
    <glyph glyph-name="b" unicode="b" 
d="M189 93l-20 -93h-61v630h83v-288c24 63 80 107 157 107c63 0 114 -22 151 -66c37 -43 56 -98 56 -165c0 -66 -19 -121 -56 -165c-37 -43 -88 -65 -152 -65c-79 0 -135 42 -158 105zM188 228v-19c0 -47 13 -85 40 -114s60 -43 99 -43c88 0 142 65 142 166
s-54 166 -142 166c-39 0 -72 -14 -99 -43s-40 -66 -40 -113z" />
    <glyph glyph-name="c" unicode="c" 
d="M449 153l69 -34c-27 -77 -95 -131 -198 -131c-67 0 -122 21 -165 64c-42 43 -63 98 -63 166s21 123 64 166s99 65 167 65c95 0 159 -46 190 -118l-69 -40c-21 60 -61 90 -120 90c-88 0 -145 -63 -145 -163c0 -99 58 -162 143 -162c65 0 110 38 127 97z" />
    <glyph glyph-name="d" unicode="d" 
d="M426 209v19c0 47 -13 84 -40 113s-60 43 -99 43c-88 0 -142 -65 -142 -166s54 -166 142 -166c39 0 72 14 99 43s40 67 40 114zM506 0h-83v94c-24 -63 -78 -106 -157 -106c-63 0 -114 22 -151 65c-37 44 -56 99 -56 165c0 67 19 122 56 165c37 44 88 66 151 66
c77 0 133 -44 157 -107v288h83v-630z" />
    <glyph glyph-name="e" unicode="e" 
d="M452 147l64 -38c-35 -81 -104 -121 -206 -121c-67 0 -121 21 -164 62s-64 95 -64 162c0 69 21 125 64 170s96 67 161 67c67 0 119 -21 156 -62s55 -92 55 -153v-26h-354c0 -46 14 -83 43 -112s64 -43 106 -43c69 0 115 31 139 94zM167 262h271c-4 68 -52 122 -131 122
c-76 0 -129 -54 -140 -122z" />
    <glyph glyph-name="f" unicode="f" 
d="M221 0v352h-151v62h151v18c0 61 19 111 58 150c39 40 89 60 150 60c88 0 150 -41 175 -98l-65 -34c-16 46 -52 69 -108 69c-80 0 -127 -59 -127 -148v-17h228v-62h-228v-352h-83z" />
    <glyph glyph-name="g" unicode="g" 
d="M399 301c0 55 -46 93 -105 93s-105 -38 -105 -93c0 -56 45 -94 105 -94s105 38 105 94zM561 -28c0 -35 -14 -64 -41 -87c-53 -48 -132 -65 -223 -65c-69 0 -127 11 -173 32c-45 21 -68 51 -68 91c0 45 44 83 103 90c-45 13 -68 38 -68 77c0 37 23 64 68 82
c-37 26 -55 62 -55 109c0 89 78 148 190 148c55 0 100 -14 136 -41c28 47 84 82 144 74l9 -73c-40 8 -94 -9 -121 -36c14 -21 21 -45 21 -72c0 -89 -77 -148 -189 -148c-37 0 -70 6 -98 18c-23 -11 -34 -26 -34 -45c0 -25 20 -37 61 -37h178c99 0 160 -46 160 -117zM136 -46
c0 -52 66 -79 161 -79c108 0 183 30 183 87c0 38 -33 57 -98 57h-150c-52 0 -96 -25 -96 -65z" />
    <glyph glyph-name="h" unicode="h" 
d="M192 236v-236h-83v630h83v-282c21 57 82 101 157 101c111 0 164 -70 164 -178v-271h-83v260c0 75 -39 119 -110 119c-75 0 -128 -58 -128 -143z" />
    <glyph glyph-name="i" unicode="i" 
d="M380 541h-113v107h113v-107zM557 64v-64h-455v64h186v308h-166v65h248v-373h187z" />
    <glyph glyph-name="j" unicode="j" 
d="M457 541h-113v107h113v-107zM248 -180c-88 0 -163 48 -188 115l49 66c32 -72 72 -108 137 -108c67 0 119 44 119 127v352h-215v65h298v-425c0 -59 -19 -106 -57 -140c-38 -35 -86 -52 -143 -52z" />
    <glyph glyph-name="k" unicode="k" 
d="M280 217l-89 -72v-145h-83v630h83v-405l261 212h108l-219 -173l229 -264h-101z" />
    <glyph glyph-name="l" unicode="l" 
d="M555 63v-63h-455v63h186v504h-166v63h248v-567h187z" />
    <glyph glyph-name="m" unicode="m" 
d="M134 244v-244h-76v437h76v-91c15 60 52 103 111 103c53 0 90 -39 97 -100c15 57 57 100 114 100c61 0 100 -49 100 -124v-325h-76v291c0 60 -20 90 -61 90c-45 0 -74 -56 -74 -137v-244h-76v291c0 60 -20 90 -61 90c-47 0 -74 -56 -74 -137z" />
    <glyph glyph-name="n" unicode="n" 
d="M191 236v-236h-83v437h83v-89c23 57 82 101 157 101c111 0 165 -70 165 -178v-271h-83v260c0 75 -39 119 -110 119c-75 0 -129 -58 -129 -143z" />
    <glyph glyph-name="o" unicode="o" 
d="M540 218c0 -67 -22 -122 -67 -165s-100 -65 -166 -65s-121 22 -166 65c-44 43 -66 98 -66 165s22 123 66 166c45 43 100 65 166 65s121 -22 166 -65s67 -99 67 -166zM162 218c0 -99 57 -164 145 -164c89 0 146 65 146 164c0 100 -57 165 -146 165
c-88 0 -145 -65 -145 -165z" />
    <glyph glyph-name="p" unicode="p" 
d="M188 228v-19c0 -47 13 -85 40 -114s60 -43 99 -43c88 0 142 65 142 166s-54 166 -142 166c-39 0 -72 -14 -99 -43s-40 -66 -40 -113zM191 94v-262h-83v605h83v-95c24 63 80 107 157 107c63 0 114 -22 151 -66c37 -43 56 -98 56 -165c0 -66 -19 -121 -56 -165
c-37 -43 -88 -65 -151 -65c-79 0 -133 43 -157 106z" />
    <glyph glyph-name="q" unicode="q" 
d="M506 -168h-83v262c-24 -63 -78 -106 -157 -106c-63 0 -114 22 -151 65c-37 44 -56 99 -56 165c0 67 19 122 56 165c37 44 88 66 151 66c77 0 133 -44 157 -107v95h83v-605zM426 209v19c0 47 -13 84 -40 113s-60 43 -99 43c-88 0 -142 -65 -142 -166s54 -166 142 -166
c39 0 72 14 99 43s40 67 40 114z" />
    <glyph glyph-name="r" unicode="r" 
d="M346 377c-41 0 -76 -19 -105 -58c-29 -38 -44 -82 -44 -133v-186h-83v437h83v-126c23 77 86 138 175 138c47 0 85 -15 112 -45c28 -30 42 -66 42 -107c0 -19 -1 -32 -4 -39l-77 -22c3 9 5 22 5 41c0 60 -36 100 -104 100z" />
    <glyph glyph-name="s" unicode="s" 
d="M84 88l51 55c31 -57 101 -91 174 -91c77 0 115 21 115 63c0 32 -24 48 -73 59l-107 23c-88 19 -132 60 -132 123c0 38 17 69 51 93s77 36 128 36c93 0 158 -30 197 -90l-56 -46c-25 44 -78 71 -141 71c-57 0 -100 -23 -100 -58c0 -31 22 -48 71 -59l122 -27
c80 -17 120 -56 120 -119c0 -40 -18 -72 -55 -97c-36 -24 -82 -36 -139 -36c-97 0 -187 39 -226 100z" />
    <glyph glyph-name="t" unicode="t" 
d="M38 352v62h142v144l81 25v-169h245v-62h-245v-169c0 -79 53 -123 120 -123c65 0 112 36 143 108l44 -63c-13 -32 -38 -60 -73 -83s-75 -34 -118 -34c-57 0 -105 16 -142 49s-55 79 -55 139v176h-142z" />
    <glyph glyph-name="u" unicode="u" 
d="M422 200v237h83v-437h-83v89c-21 -57 -82 -101 -157 -101c-109 0 -162 69 -162 177v272h83v-260c0 -76 37 -120 108 -120c73 0 128 59 128 143z" />
    <glyph glyph-name="v" unicode="v" 
d="M546 437l-201 -437h-78l-201 437h90l152 -343h4l149 343h85z" />
    <glyph glyph-name="w" unicode="w" 
d="M270 437h77l80 -339h4l76 339h77l-108 -437h-81l-86 345h-4l-86 -345h-80l-109 437h81l77 -339h4z" />
    <glyph glyph-name="x" unicode="x" 
d="M305 177l-156 -177h-94l204 227l-186 210h99l137 -158l139 158h94l-186 -207l204 -230h-99z" />
    <glyph glyph-name="y" unicode="y" 
d="M262 -39l17 40l-208 436h92l155 -340h4l139 340h81l-196 -466c-41 -96 -89 -151 -168 -151c-68 0 -112 42 -120 102l68 37c0 -48 18 -72 55 -72c33 0 60 25 81 74z" />
    <glyph glyph-name="z" unicode="z" 
d="M106 370v67h400v-60l-306 -310h322v-67h-424v60l302 310h-294z" />
    <glyph glyph-name="braceleft" unicode="{" 
d="M162 256h-55v64h55c40 0 47 16 47 73v166c0 67 30 101 91 101h178v-63h-159c-21 0 -31 -12 -31 -37v-170c0 -60 -18 -93 -70 -102c52 -9 70 -43 70 -103v-169c0 -25 10 -37 31 -37h159v-63h-178c-61 0 -91 34 -91 101v166c0 57 -7 73 -47 73z" />
    <glyph glyph-name="bar" unicode="|" 
d="M347 -83h-80v772h80v-772z" />
    <glyph glyph-name="braceright" unicode="}" 
d="M507 320v-64h-55c-40 0 -47 -16 -47 -73v-166c0 -67 -30 -101 -91 -101h-178v63h159c21 0 31 12 31 37v169c0 60 18 94 70 103c-52 9 -70 42 -70 102v170c0 25 -10 37 -31 37h-159v63h178c61 0 91 -34 91 -101v-166c0 -57 7 -73 47 -73h55z" />
    <glyph glyph-name="asciitilde" unicode="~" 
d="M389 201c-25 0 -54 13 -87 40s-57 40 -72 40c-33 0 -50 -25 -53 -76h-59c0 91 36 146 107 146c25 0 53 -13 86 -40s58 -40 73 -40c33 0 50 25 53 76h59c0 -91 -36 -146 -107 -146z" />
    <glyph glyph-name="uni00A0" unicode="&#xa0;" 
 />
    <glyph glyph-name="exclamdown" unicode="&#xa1;" 
d="M369 394h-124v124h124v-124zM354 64v-176h-94v176l27 246h40z" />
    <glyph glyph-name="cent" unicode="&#xa2;" 
d="M169 219c0 -91 50 -151 129 -162v323c-80 -13 -129 -72 -129 -161zM471 153l58 -34c-27 -69 -87 -121 -176 -130v-87h-55v87c-62 6 -112 30 -150 71c-38 42 -57 95 -57 158s19 115 57 157s88 66 150 72v95h55v-94c81 -7 138 -46 170 -117l-57 -39c-19 47 -60 81 -113 88
v-323c59 9 101 45 118 96z" />
    <glyph glyph-name="sterling" unicode="&#xa3;" 
d="M450 -12c-23 0 -47 5 -70 14c-23 10 -42 20 -56 29c-13 10 -31 24 -52 42c-26 -57 -69 -85 -128 -85c-63 0 -109 38 -109 101c0 59 47 101 112 101c24 0 49 -6 74 -18c-1 34 -12 73 -33 117h-110v55h83c-17 37 -25 72 -25 107c0 115 77 191 200 191
c120 0 198 -67 207 -180l-75 -23c-4 87 -51 134 -131 134c-79 0 -118 -50 -118 -126c0 -28 8 -62 24 -103h149v-55h-127c17 -43 26 -81 26 -114c0 -15 -1 -30 -3 -45c22 -15 38 -27 49 -34c23 -13 69 -34 106 -34c53 0 79 40 79 120l70 -8c3 -117 -50 -186 -142 -186z
M146 39c39 0 62 25 71 76c-25 17 -48 25 -69 25c-37 0 -55 -17 -55 -50c0 -31 22 -51 53 -51z" />
    <glyph glyph-name="yen" unicode="&#xa5;" 
d="M518 196v-59h-169v-137h-83v137h-169v59h169v71h-169v59h132l-192 304h94l181 -291l175 291h91l-192 -304h132v-59h-169v-71h169z" />
    <glyph glyph-name="section" unicode="&#xa7;" 
d="M249 224l124 -58l1 -1c39 13 59 37 59 72c0 40 -22 61 -74 86l-124 57l-2 1c-39 -13 -59 -37 -59 -70c0 -40 24 -63 75 -87zM305 -96c-87 0 -156 35 -188 92l55 45c24 -45 74 -73 130 -73c57 0 95 29 95 69c0 28 -12 45 -51 64l-127 57c-79 35 -118 76 -118 149
c0 47 29 88 72 111c-26 24 -39 54 -39 89c0 39 16 72 48 97s72 38 121 38c87 0 156 -35 188 -92l-55 -45c-24 45 -74 73 -130 73c-57 0 -96 -29 -95 -69c0 -29 11 -46 51 -63l127 -58c79 -35 118 -76 118 -149c0 -45 -29 -87 -72 -111c26 -23 39 -52 39 -88
c0 -40 -16 -73 -48 -98s-72 -38 -121 -38z" />
    <glyph glyph-name="dieresis" unicode="&#xa8;" 
d="M261 533h-99v105h99v-105zM451 533h-99v105h99v-105z" />
    <glyph glyph-name="copyright" unicode="&#xa9;" 
d="M308 642c77 0 143 -31 197 -93s81 -140 81 -234s-27 -172 -81 -234s-120 -93 -197 -93c-78 0 -144 31 -199 93c-54 62 -81 140 -81 234s27 172 81 234c55 62 121 93 199 93zM308 33c65 0 119 27 164 80s68 121 68 202s-23 149 -68 202s-99 80 -164 80s-121 -27 -166 -80
s-67 -121 -67 -202s22 -149 67 -202s101 -80 166 -80zM308 513c75 0 125 -43 145 -115l-53 -26c-13 54 -43 81 -91 81c-60 0 -99 -54 -99 -139c0 -84 39 -137 99 -137c53 0 84 35 93 91l54 -28c-19 -77 -71 -125 -148 -125c-47 0 -85 18 -116 55s-46 85 -46 144
s15 106 46 143s69 56 116 56z" />
    <glyph glyph-name="ordfeminine" unicode="&#xaa;" 
d="M221 537l-62 20c23 51 73 85 144 85c79 0 118 -32 118 -96v-137c0 -20 12 -30 28 -30c12 0 24 4 35 13l4 -46c-53 -39 -127 -12 -133 45c-15 -37 -59 -63 -111 -63c-57 0 -97 34 -97 86c0 51 40 74 113 93l94 21v21c0 26 -18 39 -53 39c-41 0 -71 -22 -80 -51zM354 456
v33l-73 -19c-44 -11 -64 -22 -64 -50c0 -24 18 -41 47 -41c48 0 90 34 90 77zM161 184v53h284v-53h-284z" />
    <glyph glyph-name="guillemotleft" unicode="&#xab;" 
d="M511 21l-184 157v81l184 157v-92l-117 -106l117 -105v-92zM285 21l-184 157v81l184 157v-92l-117 -106l117 -105v-92z" />
    <glyph glyph-name="registered" unicode="&#xae;" 
d="M459 580c41 -41 62 -92 62 -154s-21 -113 -62 -154s-92 -61 -152 -61s-111 20 -152 61s-62 92 -62 154s21 113 62 154s92 62 152 62s111 -21 152 -62zM482 426c0 52 -17 95 -51 129c-33 34 -75 51 -124 51s-91 -17 -125 -51c-33 -34 -50 -77 -50 -129
c0 -51 17 -94 50 -128c34 -33 76 -50 125 -50s91 17 124 50c34 34 51 77 51 128zM266 502v-64h47c29 0 44 11 44 32s-15 32 -44 32h-47zM416 316h-53c-6 8 -10 23 -13 44c-3 26 -15 39 -37 39h-47v-83h-48v225h104c57 0 86 -23 86 -68c0 -31 -30 -52 -63 -55
c31 -5 48 -21 52 -46c4 -27 10 -46 19 -56z" />
    <glyph glyph-name="overscore" unicode="&#xaf;" 
d="M458 544h-301v65h301v-65z" />
    <glyph glyph-name="degree" unicode="&#xb0;" 
d="M165 503c0 39 14 72 41 99s61 40 101 40s74 -13 101 -40s41 -60 41 -99s-14 -71 -41 -98s-61 -40 -101 -40s-74 13 -101 40s-41 59 -41 98zM250 561c-29 -31 -29 -85 0 -116s85 -31 114 0s29 85 0 116c-29 32 -85 32 -114 0z" />
    <glyph glyph-name="plusminus" unicode="&#xb1;" 
d="M563 419v-69h-222v-187h-69v187h-222v69h222v187h69v-187h222zM563 39h-513v70h513v-70z" />
    <glyph glyph-name="twosuperior" unicode="&#xb2;" 
d="M330 397l-53 -43h153v-53h-247v41l93 77c59 49 81 75 81 112c0 35 -18 53 -54 53c-39 0 -58 -21 -58 -64c0 -11 2 -20 5 -29l-62 2c-3 12 -5 22 -5 31c0 69 49 114 121 114c76 0 119 -43 119 -103c0 -19 -5 -37 -15 -55c-20 -35 -37 -48 -78 -83z" />
    <glyph glyph-name="threesuperior" unicode="&#xb3;" 
d="M242 520l-59 14c7 61 54 104 125 104c75 0 118 -38 118 -95c0 -40 -33 -70 -70 -75c44 -4 77 -37 77 -78c0 -57 -50 -95 -125 -95c-76 0 -126 37 -133 100l60 15c3 -41 31 -65 74 -65c35 0 59 18 59 49s-26 49 -63 49c-10 0 -20 -1 -29 -3v51c9 -1 19 -2 30 -2
c33 0 59 16 59 48c0 31 -22 50 -58 50c-39 0 -62 -26 -65 -67z" />
    <glyph glyph-name="acute" unicode="&#xb4;" 
d="M277 514h-56l59 162h112z" />
    <glyph glyph-name="paragraph" unicode="&#xb6;" 
d="M340 -86h-65v360c-141 0 -223 67 -223 178s82 178 223 178h223v-716h-65v652h-93v-652z" />
    <glyph glyph-name="middot" unicode="&#xb7;" 
d="M371 203h-128v128h128v-128z" />
    <glyph glyph-name="cedilla" unicode="&#xb8;" 
d="M418 -124c0 -55 -51 -85 -111 -85c-45 0 -82 14 -113 42l20 41c28 -24 57 -36 88 -36c33 0 49 11 49 34c0 17 -10 28 -30 33s-38 2 -54 -7l-28 14l61 99h46l-43 -68c28 6 54 3 78 -9c25 -12 37 -31 37 -58z" />
    <glyph glyph-name="onesuperior" unicode="&#xb9;" 
d="M442 353v-52h-252v52h99v184h-89v46h27c53 0 68 11 79 50h46v-280h90z" />
    <glyph glyph-name="ordmasculine" unicode="&#xba;" 
d="M472 485c0 -47 -16 -85 -47 -114s-71 -44 -118 -44s-86 15 -117 44s-46 67 -46 114c0 46 15 84 46 113c31 30 70 45 117 45s87 -15 118 -45c31 -29 47 -67 47 -113zM307 381c56 0 91 41 91 104s-35 103 -91 103c-55 0 -90 -40 -90 -103s35 -104 90 -104zM165 184v53h283
v-53h-283z" />
    <glyph glyph-name="guillemotright" unicode="&#xbb;" 
d="M329 416l184 -157v-81l-184 -157v92l117 105l-117 106v92zM103 416l184 -157v-81l-184 -157v92l117 105l-117 106v92z" />
    <glyph glyph-name="onequarter" unicode="&#xbc;" 
d="M282 353v-52h-252v52h99v184h-89v46h27c53 0 68 11 79 50h46v-280h90zM624 630l-233 -249l-21 20l168 229h86zM455 330h76v-197h53v-52h-53v-81h-62v81h-164v58zM469 133v142l-110 -142h110zM-10 0l233 249l21 -20l-168 -229h-86z" />
    <glyph glyph-name="onehalf" unicode="&#xbd;" 
d="M282 353v-52h-252v52h99v184h-89v46h27c53 0 68 11 79 50h46v-280h90zM624 630l-233 -249l-21 20l168 229h86zM484 96l-53 -43h153v-53h-247v41l93 77c59 49 81 75 81 112c0 35 -18 53 -54 53c-39 0 -58 -21 -58 -64c0 -11 2 -20 5 -29l-62 2c-3 12 -5 22 -5 31
c0 69 49 114 121 114c76 0 119 -43 119 -103c0 -19 -5 -37 -15 -55c-20 -35 -37 -48 -78 -83zM-10 0l233 249l21 -20l-168 -229h-86z" />
    <glyph glyph-name="threequarters" unicode="&#xbe;" 
d="M624 630l-233 -249l-21 20l168 229h86zM102 520l-59 14c7 61 54 104 125 104c75 0 118 -38 118 -95c0 -40 -33 -70 -70 -75c44 -4 77 -37 77 -78c0 -57 -50 -95 -125 -95c-76 0 -126 37 -133 100l60 15c3 -41 31 -65 74 -65c35 0 59 18 59 49s-26 49 -63 49
c-10 0 -20 -1 -29 -3v51c9 -1 19 -2 30 -2c33 0 59 16 59 48c0 31 -22 50 -58 50c-39 0 -62 -26 -65 -67zM455 330h76v-197h53v-52h-53v-81h-62v81h-164v58zM469 133v142l-110 -142h110zM-10 0l233 249l21 -20l-168 -229h-86z" />
    <glyph glyph-name="questiondown" unicode="&#xbf;" 
d="M253 518h123v-121h-123v121zM274 314h78c-1 -49 -21 -79 -73 -116l-19 -14l-19 -14c-5 -4 -28 -21 -33 -28s-19 -23 -23 -34s-8 -27 -8 -43c0 -69 46 -119 126 -119c87 0 135 55 135 148c0 16 -1 30 -4 41l89 -5c2 -15 3 -29 3 -42c0 -64 -21 -115 -62 -154
s-95 -58 -162 -58c-69 0 -123 18 -160 54c-37 35 -55 80 -55 133c0 27 7 53 21 76s29 41 44 54c16 13 39 30 70 51c36 25 49 41 52 70z" />
    <glyph glyph-name="Agrave" unicode="&#xc0;" 
d="M339 702h-64l-136 141h122zM306 534h-4l-90 -280h185zM570 0h-91l-60 184h-230l-59 -184h-86l210 630h106z" />
    <glyph glyph-name="Aacute" unicode="&#xc1;" 
d="M474 843l-137 -141h-63l77 141h123zM306 534h-4l-90 -280h185zM570 0h-91l-60 184h-230l-59 -184h-86l210 630h106z" />
    <glyph glyph-name="Acircumflex" unicode="&#xc2;" 
d="M152 702l102 135h103l103 -135h-66l-88 78l-88 -78h-66zM306 534h-4l-90 -280h185zM570 0h-91l-60 184h-230l-59 -184h-86l210 630h106z" />
    <glyph glyph-name="Atilde" unicode="&#xc3;" 
d="M203 701h-62c0 77 35 137 92 137c20 0 44 -12 73 -35s50 -34 62 -34c21 0 33 22 36 67h62c0 -77 -36 -137 -93 -137c-19 0 -44 12 -73 35s-49 35 -61 35c-21 0 -33 -23 -36 -68zM306 534h-4l-90 -280h185zM570 0h-91l-60 184h-230l-59 -184h-86l210 630h106z" />
    <glyph glyph-name="Adieresis" unicode="&#xc4;" 
d="M260 705h-99v106h99v-106zM450 705h-99v106h99v-106zM306 534h-4l-90 -280h185zM570 0h-91l-60 184h-230l-59 -184h-86l210 630h106z" />
    <glyph glyph-name="Aring" unicode="&#xc5;" 
d="M206 770c0 55 41 95 100 95s99 -40 99 -95c0 -56 -40 -96 -99 -96c-60 0 -100 40 -100 96zM256 770c0 -31 18 -50 50 -50c33 0 49 17 49 50c0 29 -17 49 -49 49s-50 -20 -50 -49zM306 534h-4l-90 -280h185zM570 0h-91l-60 184h-230l-59 -184h-86l210 630h106z" />
    <glyph glyph-name="AE" unicode="&#xc6;" 
d="M296 254v315l-116 -315h116zM595 0h-299v184h-141l-68 -184h-82l236 630h348v-74h-213v-192h155v-75h-155v-215h219v-74z" />
    <glyph glyph-name="Ccedilla" unicode="&#xc7;" 
d="M308 -209c-45 0 -82 14 -113 42l20 41c28 -24 57 -36 88 -36c33 0 49 11 49 34c0 17 -10 28 -30 33s-38 2 -54 -7l-28 14l48 78c-68 9 -124 44 -169 103c-44 59 -66 133 -66 222c0 96 26 174 77 235c52 61 116 92 193 92c111 0 191 -62 227 -166l-79 -48
c-21 87 -74 139 -151 139c-50 0 -92 -23 -126 -69s-51 -107 -51 -183c0 -75 17 -136 50 -183c34 -46 76 -69 125 -69c87 0 139 53 158 158l83 -42c-29 -115 -110 -186 -226 -191l-29 -45c28 6 54 3 78 -9c25 -12 37 -31 37 -58c0 -55 -51 -85 -111 -85z" />
    <glyph glyph-name="Egrave" unicode="&#xc8;" 
d="M386 702h-64l-136 141h122zM200 74h331v-74h-417v630h408v-74h-322v-192h229v-75h-229v-215z" />
    <glyph glyph-name="Eacute" unicode="&#xc9;" 
d="M473 843l-137 -141h-63l77 141h123zM200 74h331v-74h-417v630h408v-74h-322v-192h229v-75h-229v-215z" />
    <glyph glyph-name="Ecircumflex" unicode="&#xca;" 
d="M171 702l102 135h103l103 -135h-66l-88 78l-88 -78h-66zM200 74h331v-74h-417v630h408v-74h-322v-192h229v-75h-229v-215z" />
    <glyph glyph-name="Edieresis" unicode="&#xcb;" 
d="M279 705h-99v106h99v-106zM469 705h-99v106h99v-106zM200 74h331v-74h-417v630h408v-74h-322v-192h229v-75h-229v-215z" />
    <glyph glyph-name="Igrave" unicode="&#xcc;" 
d="M366 702h-64l-136 141h122zM528 75v-75h-443v75h178v480h-178v75h443v-75h-177v-480h177z" />
    <glyph glyph-name="Iacute" unicode="&#xcd;" 
d="M454 843l-137 -141h-63l77 141h123zM528 75v-75h-443v75h178v480h-178v75h443v-75h-177v-480h177z" />
    <glyph glyph-name="Icircumflex" unicode="&#xce;" 
d="M152 702l102 135h103l103 -135h-66l-88 78l-88 -78h-66zM528 75v-75h-443v75h178v480h-178v75h443v-75h-177v-480h177z" />
    <glyph glyph-name="Idieresis" unicode="&#xcf;" 
d="M260 705h-99v106h99v-106zM450 705h-99v106h99v-106zM528 75v-75h-443v75h178v480h-178v75h443v-75h-177v-480h177z" />
    <glyph glyph-name="Eth" unicode="&#xd0;" 
d="M244 0h-166v294h-54v70h54v266h166c97 0 175 -28 232 -84s86 -133 86 -231s-29 -175 -86 -231s-135 -84 -232 -84zM166 294v-222h68c153 0 237 88 237 243s-84 243 -237 243h-68v-194h153v-70h-153z" />
    <glyph glyph-name="Ntilde" unicode="&#xd1;" 
d="M210 701h-62c0 77 35 137 92 137c20 0 44 -12 73 -35s50 -34 62 -34c21 0 33 22 36 67h62c0 -77 -36 -137 -93 -137c-19 0 -44 12 -73 35s-49 35 -61 35c-21 0 -33 -23 -36 -68zM72 630h102l287 -488v488h81v-630h-77l-312 520v-520h-81v630z" />
    <glyph glyph-name="Ograve" unicode="&#xd2;" 
d="M368 702h-64l-136 141h122zM495 551c49 -61 74 -139 74 -236s-25 -175 -74 -236s-111 -91 -188 -91s-140 30 -189 91s-73 139 -73 236s24 175 73 236s112 91 189 91s139 -30 188 -91zM432 132c31 45 47 106 47 183s-16 138 -47 183s-73 68 -125 68s-94 -23 -125 -68
s-47 -106 -47 -183s16 -138 47 -183s73 -68 125 -68s94 23 125 68z" />
    <glyph glyph-name="Oacute" unicode="&#xd3;" 
d="M456 843l-137 -141h-63l77 141h123zM495 551c49 -61 74 -139 74 -236s-25 -175 -74 -236s-111 -91 -188 -91s-140 30 -189 91s-73 139 -73 236s24 175 73 236s112 91 189 91s139 -30 188 -91zM432 132c31 45 47 106 47 183s-16 138 -47 183s-73 68 -125 68
s-94 -23 -125 -68s-47 -106 -47 -183s16 -138 47 -183s73 -68 125 -68s94 23 125 68z" />
    <glyph glyph-name="Ocircumflex" unicode="&#xd4;" 
d="M153 702l102 135h103l103 -135h-66l-88 78l-88 -78h-66zM495 551c49 -61 74 -139 74 -236s-25 -175 -74 -236s-111 -91 -188 -91s-140 30 -189 91s-73 139 -73 236s24 175 73 236s112 91 189 91s139 -30 188 -91zM432 132c31 45 47 106 47 183s-16 138 -47 183
s-73 68 -125 68s-94 -23 -125 -68s-47 -106 -47 -183s16 -138 47 -183s73 -68 125 -68s94 23 125 68z" />
    <glyph glyph-name="Otilde" unicode="&#xd5;" 
d="M207 701h-62c0 77 35 137 92 137c20 0 44 -12 73 -35s50 -34 62 -34c21 0 33 22 36 67h62c0 -77 -36 -137 -93 -137c-19 0 -44 12 -73 35s-49 35 -61 35c-21 0 -33 -23 -36 -68zM495 551c49 -61 74 -139 74 -236s-25 -175 -74 -236s-111 -91 -188 -91s-140 30 -189 91
s-73 139 -73 236s24 175 73 236s112 91 189 91s139 -30 188 -91zM432 132c31 45 47 106 47 183s-16 138 -47 183s-73 68 -125 68s-94 -23 -125 -68s-47 -106 -47 -183s16 -138 47 -183s73 -68 125 -68s94 23 125 68z" />
    <glyph glyph-name="Odieresis" unicode="&#xd6;" 
d="M261 705h-99v106h99v-106zM451 705h-99v106h99v-106zM495 551c49 -61 74 -139 74 -236s-25 -175 -74 -236s-111 -91 -188 -91s-140 30 -189 91s-73 139 -73 236s24 175 73 236s112 91 189 91s139 -30 188 -91zM432 132c31 45 47 106 47 183s-16 138 -47 183
s-73 68 -125 68s-94 -23 -125 -68s-47 -106 -47 -183s16 -138 47 -183s73 -68 125 -68s94 23 125 68z" />
    <glyph glyph-name="multiply" unicode="&#xd7;" 
d="M98 147l162 161l-162 162l49 49l160 -164l160 164l49 -49l-162 -162l162 -161l-49 -49l-160 163l-160 -163z" />
    <glyph glyph-name="Oslash" unicode="&#xd8;" 
d="M134 315c0 -64 11 -117 32 -158l257 357c-31 37 -70 55 -116 55c-53 0 -95 -23 -126 -69s-47 -108 -47 -185zM307 61c53 0 95 23 126 69s47 108 47 185c0 53 -8 101 -24 142l-254 -352c29 -29 64 -44 105 -44zM307 -12c-57 0 -108 18 -151 54l-49 -68l-47 36l54 75
c-46 61 -69 137 -69 230c0 97 24 175 73 236s112 91 189 91c63 0 117 -21 162 -63l46 63l48 -36l-54 -74c40 -59 60 -131 60 -217c0 -97 -25 -175 -74 -236s-111 -91 -188 -91z" />
    <glyph glyph-name="Ugrave" unicode="&#xd9;" 
d="M368 702h-64l-136 141h122zM308 -12c-69 0 -126 22 -171 67c-44 45 -66 111 -66 198v377h87v-371c0 -130 50 -195 150 -195c97 0 150 67 150 195v371h86v-377c0 -87 -22 -153 -67 -198s-101 -67 -169 -67z" />
    <glyph glyph-name="Uacute" unicode="&#xda;" 
d="M456 843l-137 -141h-63l77 141h123zM308 -12c-69 0 -126 22 -171 67c-44 45 -66 111 -66 198v377h87v-371c0 -130 50 -195 150 -195c97 0 150 67 150 195v371h86v-377c0 -87 -22 -153 -67 -198s-101 -67 -169 -67z" />
    <glyph glyph-name="Ucircumflex" unicode="&#xdb;" 
d="M153 702l102 135h103l103 -135h-66l-88 78l-88 -78h-66zM308 -12c-69 0 -126 22 -171 67c-44 45 -66 111 -66 198v377h87v-371c0 -130 50 -195 150 -195c97 0 150 67 150 195v371h86v-377c0 -87 -22 -153 -67 -198s-101 -67 -169 -67z" />
    <glyph glyph-name="Udieresis" unicode="&#xdc;" 
d="M261 705h-99v106h99v-106zM451 705h-99v106h99v-106zM308 -12c-69 0 -126 22 -171 67c-44 45 -66 111 -66 198v377h87v-371c0 -130 50 -195 150 -195c97 0 150 67 150 195v371h86v-377c0 -87 -22 -153 -67 -198s-101 -67 -169 -67z" />
    <glyph glyph-name="Yacute" unicode="&#xdd;" 
d="M456 843l-137 -141h-63l77 141h123zM132 630l179 -285l177 285h93l-232 -367v-263h-84v263l-232 367h99z" />
    <glyph glyph-name="Thorn" unicode="&#xde;" 
d="M314 132h-129v-132h-87v630h87v-120h129c155 0 245 -70 245 -189s-90 -189 -245 -189zM185 437v-232h127c107 0 161 39 161 116s-54 116 -161 116h-127z" />
    <glyph glyph-name="germandbls" unicode="&#xdf;" 
d="M507 486c0 -72 -45 -120 -105 -133c87 -15 143 -79 143 -168c0 -60 -19 -107 -56 -140s-83 -50 -138 -50c-22 0 -47 4 -74 13v64c27 -8 48 -12 63 -12c72 0 122 45 122 129c0 77 -55 128 -138 127c-17 0 -31 0 -42 -1v67c8 -1 21 -2 39 -2c68 0 105 36 105 103
c0 57 -38 97 -105 97c-76 0 -126 -54 -126 -141v-439h-83v444c0 57 19 105 58 142s89 56 151 56c115 0 186 -60 186 -156z" />
    <glyph glyph-name="agrave" unicode="&#xe0;" 
d="M294 676l58 -162h-56l-115 162h113zM173 301l-74 27c32 72 105 121 204 121c101 0 161 -44 161 -131v-213c0 -32 22 -49 47 -49c19 0 36 7 51 20l5 -62c-23 -16 -47 -24 -72 -24c-57 0 -104 42 -108 97c-23 -56 -88 -96 -167 -96c-81 0 -139 50 -139 126
c0 75 59 111 171 136l134 31v37c0 35 -26 62 -85 62c-65 0 -113 -35 -128 -82zM386 176v55l-114 -27c-75 -19 -108 -37 -108 -81c0 -40 28 -69 76 -69c39 0 73 12 102 37s44 53 44 85z" />
    <glyph glyph-name="aacute" unicode="&#xe1;" 
d="M320 514h-56l59 162h112zM173 301l-74 27c32 72 105 121 204 121c101 0 161 -44 161 -131v-213c0 -32 22 -49 47 -49c19 0 36 7 51 20l5 -62c-23 -16 -47 -24 -72 -24c-57 0 -104 42 -108 97c-23 -56 -88 -96 -167 -96c-81 0 -139 50 -139 126c0 75 59 111 171 136
l134 31v37c0 35 -26 62 -85 62c-65 0 -113 -35 -128 -82zM386 176v55l-114 -27c-75 -19 -108 -37 -108 -81c0 -40 28 -69 76 -69c39 0 73 12 102 37s44 53 44 85z" />
    <glyph glyph-name="acircumflex" unicode="&#xe2;" 
d="M150 506l102 165h96l102 -165h-61l-89 107l-89 -107h-61zM173 301l-74 27c32 72 105 121 204 121c101 0 161 -44 161 -131v-213c0 -32 22 -49 47 -49c19 0 36 7 51 20l5 -62c-23 -16 -47 -24 -72 -24c-57 0 -104 42 -108 97c-23 -56 -88 -96 -167 -96
c-81 0 -139 50 -139 126c0 75 59 111 171 136l134 31v37c0 35 -26 62 -85 62c-65 0 -113 -35 -128 -82zM386 176v55l-114 -27c-75 -19 -108 -37 -108 -81c0 -40 28 -69 76 -69c39 0 73 12 102 37s44 53 44 85z" />
    <glyph glyph-name="atilde" unicode="&#xe3;" 
d="M202 522h-61c0 77 35 136 92 136c19 0 42 -11 69 -34s46 -34 58 -34c21 0 33 22 36 66h62c0 -77 -36 -136 -93 -136c-19 0 -42 11 -69 34c-26 23 -45 35 -58 35c-21 0 -33 -22 -36 -67zM173 301l-74 27c32 72 105 121 204 121c101 0 161 -44 161 -131v-213
c0 -32 22 -49 47 -49c19 0 36 7 51 20l5 -62c-23 -16 -47 -24 -72 -24c-57 0 -104 42 -108 97c-23 -56 -88 -96 -167 -96c-81 0 -139 50 -139 126c0 75 59 111 171 136l134 31v37c0 35 -26 62 -85 62c-65 0 -113 -35 -128 -82zM386 176v55l-114 -27
c-75 -19 -108 -37 -108 -81c0 -40 28 -69 76 -69c39 0 73 12 102 37s44 53 44 85z" />
    <glyph glyph-name="adieresis" unicode="&#xe4;" 
d="M255 533h-99v105h99v-105zM445 533h-99v105h99v-105zM173 301l-74 27c32 72 105 121 204 121c101 0 161 -44 161 -131v-213c0 -32 22 -49 47 -49c19 0 36 7 51 20l5 -62c-23 -16 -47 -24 -72 -24c-57 0 -104 42 -108 97c-23 -56 -88 -96 -167 -96c-81 0 -139 50 -139 126
c0 75 59 111 171 136l134 31v37c0 35 -26 62 -85 62c-65 0 -113 -35 -128 -82zM386 176v55l-114 -27c-75 -19 -108 -37 -108 -81c0 -40 28 -69 76 -69c39 0 73 12 102 37s44 53 44 85z" />
    <glyph glyph-name="aring" unicode="&#xe5;" 
d="M200 605c0 55 41 95 100 95s99 -40 99 -95c0 -56 -40 -96 -99 -96c-60 0 -100 40 -100 96zM349 605c0 33 -16 49 -49 49c-48 5 -64 -56 -37 -85c9 -9 21 -14 37 -14c32 0 49 19 49 50zM173 301l-74 27c32 72 105 121 204 121c101 0 161 -44 161 -131v-213
c0 -32 22 -49 47 -49c19 0 36 7 51 20l5 -62c-23 -16 -47 -24 -72 -24c-57 0 -104 42 -108 97c-23 -56 -88 -96 -167 -96c-81 0 -139 50 -139 126c0 75 59 111 171 136l134 31v37c0 35 -26 62 -85 62c-65 0 -113 -35 -128 -82zM386 176v55l-114 -27
c-75 -19 -108 -37 -108 -81c0 -40 28 -69 76 -69c39 0 73 12 102 37s44 53 44 85z" />
    <glyph glyph-name="ae" unicode="&#xe6;" 
d="M432 -12c-67 0 -122 39 -151 104c-25 -57 -73 -101 -140 -101c-68 0 -120 49 -120 125c0 71 48 106 137 133l98 31v41c0 33 -18 62 -62 62c-47 0 -77 -27 -92 -82l-66 27c25 72 83 121 159 121c55 0 92 -24 110 -72c32 48 73 72 124 72c52 0 92 -21 121 -62
s43 -90 43 -149v-30h-269c0 -93 46 -155 110 -155c44 0 76 30 95 90l61 -36c-27 -76 -83 -119 -158 -119zM326 262h193c-3 71 -30 122 -90 122c-57 0 -95 -53 -103 -122zM256 176v51l-79 -27c-56 -17 -81 -35 -81 -80c0 -39 24 -65 63 -65c26 0 49 12 68 36
c19 25 29 53 29 85z" />
    <glyph glyph-name="ccedilla" unicode="&#xe7;" 
d="M310 -209c-45 0 -82 14 -113 42l20 41c28 -24 57 -36 88 -36c33 0 49 11 49 34c0 17 -10 28 -30 33s-38 2 -54 -7l-28 14l48 78c-59 7 -107 31 -144 72c-36 41 -54 93 -54 156c0 68 21 123 64 166s99 65 167 65c95 0 159 -46 190 -118l-69 -40c-21 60 -61 90 -120 90
c-88 0 -145 -63 -145 -163c0 -99 58 -162 143 -162c65 0 110 38 127 97l69 -34c-25 -75 -88 -126 -183 -131l-29 -45c28 6 54 3 78 -9c25 -12 37 -31 37 -58c0 -55 -51 -85 -111 -85z" />
    <glyph glyph-name="egrave" unicode="&#xe8;" 
d="M299 676l58 -162h-56l-115 162h113zM452 147l64 -38c-35 -81 -104 -121 -206 -121c-67 0 -121 21 -164 62s-64 95 -64 162c0 69 21 125 64 170s96 67 161 67c67 0 119 -21 156 -62s55 -92 55 -153v-26h-354c0 -46 14 -83 43 -112s64 -43 106 -43c69 0 115 31 139 94z
M167 262h271c-4 68 -52 122 -131 122c-76 0 -129 -54 -140 -122z" />
    <glyph glyph-name="eacute" unicode="&#xe9;" 
d="M333 514h-56l59 162h112zM452 147l64 -38c-35 -81 -104 -121 -206 -121c-67 0 -121 21 -164 62s-64 95 -64 162c0 69 21 125 64 170s96 67 161 67c67 0 119 -21 156 -62s55 -92 55 -153v-26h-354c0 -46 14 -83 43 -112s64 -43 106 -43c69 0 115 31 139 94zM167 262h271
c-4 68 -52 122 -131 122c-76 0 -129 -54 -140 -122z" />
    <glyph glyph-name="ecircumflex" unicode="&#xea;" 
d="M163 506l102 165h96l102 -165h-61l-89 107l-89 -107h-61zM452 147l64 -38c-35 -81 -104 -121 -206 -121c-67 0 -121 21 -164 62s-64 95 -64 162c0 69 21 125 64 170s96 67 161 67c67 0 119 -21 156 -62s55 -92 55 -153v-26h-354c0 -46 14 -83 43 -112s64 -43 106 -43
c69 0 115 31 139 94zM167 262h271c-4 68 -52 122 -131 122c-76 0 -129 -54 -140 -122z" />
    <glyph glyph-name="edieresis" unicode="&#xeb;" 
d="M267 533h-99v105h99v-105zM457 533h-99v105h99v-105zM452 147l64 -38c-35 -81 -104 -121 -206 -121c-67 0 -121 21 -164 62s-64 95 -64 162c0 69 21 125 64 170s96 67 161 67c67 0 119 -21 156 -62s55 -92 55 -153v-26h-354c0 -46 14 -83 43 -112s64 -43 106 -43
c69 0 115 31 139 94zM167 262h271c-4 68 -52 122 -131 122c-76 0 -129 -54 -140 -122z" />
    <glyph glyph-name="igrave" unicode="&#xec;" 
d="M309 676l58 -162h-56l-115 162h113zM557 64v-64h-455v64h186v308h-166v65h248v-373h187z" />
    <glyph glyph-name="iacute" unicode="&#xed;" 
d="M342 514h-56l59 162h112zM557 64v-64h-455v64h186v308h-166v65h248v-373h187z" />
    <glyph glyph-name="icircumflex" unicode="&#xee;" 
d="M172 506l102 165h96l102 -165h-61l-89 107l-89 -107h-61zM557 64v-64h-455v64h186v308h-166v65h248v-373h187z" />
    <glyph glyph-name="idieresis" unicode="&#xef;" 
d="M276 533h-99v105h99v-105zM466 533h-99v105h99v-105zM557 64v-64h-455v64h186v308h-166v65h248v-373h187z" />
    <glyph glyph-name="eth" unicode="&#xf0;" 
d="M308 -12c-67 0 -123 21 -168 62c-44 41 -66 95 -66 162s22 120 65 161s97 61 162 61c61 0 109 -25 144 -76c-19 51 -61 103 -125 156l-129 -47l-17 41l104 38c-25 19 -57 39 -95 60l58 37c40 -21 77 -44 112 -69l85 31l19 -41l-64 -23c97 -87 145 -191 145 -311
c0 -153 -93 -242 -230 -242zM201 96c26 -29 62 -43 107 -43s81 14 106 43c26 29 39 68 39 116s-13 87 -39 116c-25 29 -61 44 -106 44s-81 -15 -107 -44c-25 -29 -38 -68 -38 -116s13 -87 38 -116z" />
    <glyph glyph-name="ntilde" unicode="&#xf1;" 
d="M216 522h-61c0 77 35 136 92 136c19 0 42 -11 69 -34s46 -34 58 -34c21 0 33 22 36 66h62c0 -77 -36 -136 -93 -136c-19 0 -42 11 -69 34c-26 23 -45 35 -58 35c-21 0 -33 -22 -36 -67zM191 236v-236h-83v437h83v-89c23 57 82 101 157 101c111 0 165 -70 165 -178v-271
h-83v260c0 75 -39 119 -110 119c-75 0 -129 -58 -129 -143z" />
    <glyph glyph-name="ograve" unicode="&#xf2;" 
d="M293 676l58 -162h-56l-115 162h113zM540 218c0 -67 -22 -122 -67 -165s-100 -65 -166 -65s-121 22 -166 65c-44 43 -66 98 -66 165s22 123 66 166c45 43 100 65 166 65s121 -22 166 -65s67 -99 67 -166zM162 218c0 -99 57 -164 145 -164c89 0 146 65 146 164
c0 100 -57 165 -146 165c-88 0 -145 -65 -145 -165z" />
    <glyph glyph-name="oacute" unicode="&#xf3;" 
d="M327 514h-56l59 162h112zM540 218c0 -67 -22 -122 -67 -165s-100 -65 -166 -65s-121 22 -166 65c-44 43 -66 98 -66 165s22 123 66 166c45 43 100 65 166 65s121 -22 166 -65s67 -99 67 -166zM162 218c0 -99 57 -164 145 -164c89 0 146 65 146 164
c0 100 -57 165 -146 165c-88 0 -145 -65 -145 -165z" />
    <glyph glyph-name="ocircumflex" unicode="&#xf4;" 
d="M157 506l102 165h96l102 -165h-61l-89 107l-89 -107h-61zM540 218c0 -67 -22 -122 -67 -165s-100 -65 -166 -65s-121 22 -166 65c-44 43 -66 98 -66 165s22 123 66 166c45 43 100 65 166 65s121 -22 166 -65s67 -99 67 -166zM162 218c0 -99 57 -164 145 -164
c89 0 146 65 146 164c0 100 -57 165 -146 165c-88 0 -145 -65 -145 -165z" />
    <glyph glyph-name="otilde" unicode="&#xf5;" 
d="M211 522h-61c0 77 35 136 92 136c19 0 42 -11 69 -34s46 -34 58 -34c21 0 33 22 36 66h62c0 -77 -36 -136 -93 -136c-19 0 -42 11 -69 34c-26 23 -45 35 -58 35c-21 0 -33 -22 -36 -67zM540 218c0 -67 -22 -122 -67 -165s-100 -65 -166 -65s-121 22 -166 65
c-44 43 -66 98 -66 165s22 123 66 166c45 43 100 65 166 65s121 -22 166 -65s67 -99 67 -166zM162 218c0 -99 57 -164 145 -164c89 0 146 65 146 164c0 100 -57 165 -146 165c-88 0 -145 -65 -145 -165z" />
    <glyph glyph-name="odieresis" unicode="&#xf6;" 
d="M261 533h-99v105h99v-105zM451 533h-99v105h99v-105zM540 218c0 -67 -22 -122 -67 -165s-100 -65 -166 -65s-121 22 -166 65c-44 43 -66 98 -66 165s22 123 66 166c45 43 100 65 166 65s121 -22 166 -65s67 -99 67 -166zM162 218c0 -99 57 -164 145 -164
c89 0 146 65 146 164c0 100 -57 165 -146 165c-88 0 -145 -65 -145 -165z" />
    <glyph glyph-name="divide" unicode="&#xf7;" 
d="M358 472h-101v99h101v-99zM562 277h-510v70h510v-70zM358 53h-101v99h101v-99z" />
    <glyph glyph-name="oslash" unicode="&#xf8;" 
d="M160 218c0 -37 8 -70 24 -98l212 235c-25 19 -54 29 -89 29c-89 0 -147 -66 -147 -166zM307 53c89 0 147 65 147 165c0 39 -8 73 -25 101l-212 -236c25 -20 55 -30 90 -30zM307 -12c-51 0 -97 14 -138 42l-58 -65l-38 31l60 66c-39 43 -58 95 -58 156c0 67 22 123 66 166
c45 43 100 65 166 65c51 0 96 -14 136 -41l53 59l38 -31l-54 -60c40 -42 60 -95 60 -158c0 -67 -22 -122 -67 -165s-100 -65 -166 -65z" />
    <glyph glyph-name="ugrave" unicode="&#xf9;" 
d="M291 676l58 -162h-56l-115 162h113zM422 200v237h83v-437h-83v89c-21 -57 -82 -101 -157 -101c-109 0 -162 69 -162 177v272h83v-260c0 -76 37 -120 108 -120c73 0 128 59 128 143z" />
    <glyph glyph-name="uacute" unicode="&#xfa;" 
d="M325 514h-56l59 162h112zM422 200v237h83v-437h-83v89c-21 -57 -82 -101 -157 -101c-109 0 -162 69 -162 177v272h83v-260c0 -76 37 -120 108 -120c73 0 128 59 128 143z" />
    <glyph glyph-name="ucircumflex" unicode="&#xfb;" 
d="M155 506l102 165h96l102 -165h-61l-89 107l-89 -107h-61zM422 200v237h83v-437h-83v89c-21 -57 -82 -101 -157 -101c-109 0 -162 69 -162 177v272h83v-260c0 -76 37 -120 108 -120c73 0 128 59 128 143z" />
    <glyph glyph-name="udieresis" unicode="&#xfc;" 
d="M259 533h-99v105h99v-105zM449 533h-99v105h99v-105zM422 200v237h83v-437h-83v89c-21 -57 -82 -101 -157 -101c-109 0 -162 69 -162 177v272h83v-260c0 -76 37 -120 108 -120c73 0 128 59 128 143z" />
    <glyph glyph-name="yacute" unicode="&#xfd;" 
d="M321 514h-56l59 162h112zM262 -39l17 40l-208 436h92l155 -340h4l139 340h81l-196 -466c-41 -96 -89 -151 -168 -151c-68 0 -112 42 -120 102l68 37c0 -48 18 -72 55 -72c33 0 60 25 81 74z" />
    <glyph glyph-name="thorn" unicode="&#xfe;" 
d="M188 228v-19c0 -47 13 -85 40 -114s60 -43 99 -43c88 0 142 65 142 166s-54 166 -142 166c-39 0 -72 -14 -99 -43s-40 -66 -40 -113zM191 94v-262h-83v798h83v-288c24 63 80 107 157 107c63 0 114 -22 151 -66c37 -43 56 -98 56 -165c0 -66 -19 -121 -56 -165
c-37 -43 -88 -65 -151 -65c-79 0 -133 43 -157 106z" />
    <glyph glyph-name="ydieresis" unicode="&#xff;" 
d="M255 533h-99v105h99v-105zM445 533h-99v105h99v-105zM262 -39l17 40l-208 436h92l155 -340h4l139 340h81l-196 -466c-41 -96 -89 -151 -168 -151c-68 0 -112 42 -120 102l68 37c0 -48 18 -72 55 -72c33 0 60 25 81 74z" />
    <glyph glyph-name="Amacron" unicode="&#x100;" 
d="M459 707h-305v66h305v-66zM306 534h-4l-90 -280h185zM570 0h-91l-60 184h-230l-59 -184h-86l210 630h106z" />
    <glyph glyph-name="amacron" unicode="&#x101;" 
d="M450 544h-301v65h301v-65zM173 301l-74 27c32 72 105 121 204 121c101 0 161 -44 161 -131v-213c0 -32 22 -49 47 -49c19 0 36 7 51 20l5 -62c-23 -16 -47 -24 -72 -24c-57 0 -104 42 -108 97c-23 -56 -88 -96 -167 -96c-81 0 -139 50 -139 126c0 75 59 111 171 136
l134 31v37c0 35 -26 62 -85 62c-65 0 -113 -35 -128 -82zM386 176v55l-114 -27c-75 -19 -108 -37 -108 -81c0 -40 28 -69 76 -69c39 0 73 12 102 37s44 53 44 85z" />
    <glyph glyph-name="Abreve" unicode="&#x102;" 
d="M165 840h63c0 -51 26 -77 78 -77s78 26 78 77h61c0 -85 -55 -140 -139 -140s-141 55 -141 140zM306 534h-4l-90 -280h185zM570 0h-91l-60 184h-230l-59 -184h-86l210 630h106z" />
    <glyph glyph-name="abreve" unicode="&#x103;" 
d="M300 503c-89 0 -143 69 -143 158h62c0 -55 26 -95 81 -95s80 40 80 95h62c0 -45 -13 -82 -39 -113c-25 -30 -60 -45 -103 -45zM173 301l-74 27c32 72 105 121 204 121c101 0 161 -44 161 -131v-213c0 -32 22 -49 47 -49c19 0 36 7 51 20l5 -62c-23 -16 -47 -24 -72 -24
c-57 0 -104 42 -108 97c-23 -56 -88 -96 -167 -96c-81 0 -139 50 -139 126c0 75 59 111 171 136l134 31v37c0 35 -26 62 -85 62c-65 0 -113 -35 -128 -82zM386 176v55l-114 -27c-75 -19 -108 -37 -108 -81c0 -40 28 -69 76 -69c39 0 73 12 102 37s44 53 44 85z" />
    <glyph glyph-name="Aogonek" unicode="&#x104;" 
d="M306 534h-4l-90 -280h185zM549 -105l6 -44c-23 -20 -51 -30 -85 -30c-47 0 -80 25 -80 68s27 72 86 121l-57 174h-230l-59 -184h-86l210 630h106l210 -630h-47c-51 -47 -66 -67 -66 -94c0 -17 13 -31 36 -31c16 0 35 7 56 20z" />
    <glyph glyph-name="aogonek" unicode="&#x105;" 
d="M499 -179c-47 0 -80 25 -80 68c0 32 21 66 63 102c-52 7 -92 47 -95 96c-23 -56 -88 -96 -167 -96c-81 0 -139 50 -139 126c0 75 59 111 171 136l134 31v37c0 35 -26 62 -85 62c-65 0 -113 -35 -128 -82l-74 27c32 72 105 121 204 121c101 0 161 -44 161 -131v-213
c0 -32 22 -49 47 -49c19 0 36 7 51 20l5 -62c-63 -56 -81 -79 -81 -108c0 -21 12 -31 36 -31c16 0 35 7 56 20l6 -44c-23 -20 -51 -30 -85 -30zM386 176v55l-114 -27c-75 -19 -108 -37 -108 -81c0 -40 28 -69 76 -69c39 0 73 12 102 37s44 53 44 85z" />
    <glyph glyph-name="Cacute" unicode="&#x106;" 
d="M473 843l-137 -141h-63l77 141h123zM476 221l83 -42c-31 -119 -115 -191 -238 -191c-76 0 -140 30 -191 91s-77 140 -77 236s26 174 77 235c52 61 116 92 193 92c111 0 191 -62 227 -166l-79 -48c-21 87 -74 139 -151 139c-50 0 -92 -23 -126 -69s-51 -107 -51 -183
c0 -75 17 -136 50 -183c34 -46 76 -69 125 -69c87 0 139 53 158 158z" />
    <glyph glyph-name="cacute" unicode="&#x107;" 
d="M347 514h-56l59 162h112zM449 153l69 -34c-27 -77 -95 -131 -198 -131c-67 0 -122 21 -165 64c-42 43 -63 98 -63 166s21 123 64 166s99 65 167 65c95 0 159 -46 190 -118l-69 -40c-21 60 -61 90 -120 90c-88 0 -145 -63 -145 -163c0 -99 58 -162 143 -162
c65 0 110 38 127 97z" />
    <glyph glyph-name="Ccircumflex" unicode="&#x108;" 
d="M171 702l102 135h103l103 -135h-66l-88 78l-88 -78h-66zM476 221l83 -42c-31 -119 -115 -191 -238 -191c-76 0 -140 30 -191 91s-77 140 -77 236s26 174 77 235c52 61 116 92 193 92c111 0 191 -62 227 -166l-79 -48c-21 87 -74 139 -151 139c-50 0 -92 -23 -126 -69
s-51 -107 -51 -183c0 -75 17 -136 50 -183c34 -46 76 -69 125 -69c87 0 139 53 158 158z" />
    <glyph glyph-name="ccircumflex" unicode="&#x109;" 
d="M177 506l102 165h96l102 -165h-61l-89 107l-89 -107h-61zM449 153l69 -34c-27 -77 -95 -131 -198 -131c-67 0 -122 21 -165 64c-42 43 -63 98 -63 166s21 123 64 166s99 65 167 65c95 0 159 -46 190 -118l-69 -40c-21 60 -61 90 -120 90c-88 0 -145 -63 -145 -163
c0 -99 58 -162 143 -162c65 0 110 38 127 97z" />
    <glyph glyph-name="Cdotaccent" unicode="&#x10a;" 
d="M382 705h-113v108h113v-108zM476 221l83 -42c-31 -119 -115 -191 -238 -191c-76 0 -140 30 -191 91s-77 140 -77 236s26 174 77 235c52 61 116 92 193 92c111 0 191 -62 227 -166l-79 -48c-21 87 -74 139 -151 139c-50 0 -92 -23 -126 -69s-51 -107 -51 -183
c0 -75 17 -136 50 -183c34 -46 76 -69 125 -69c87 0 139 53 158 158z" />
    <glyph glyph-name="cdotaccent" unicode="&#x10b;" 
d="M383 541h-113v107h113v-107zM449 153l69 -34c-27 -77 -95 -131 -198 -131c-67 0 -122 21 -165 64c-42 43 -63 98 -63 166s21 123 64 166s99 65 167 65c95 0 159 -46 190 -118l-69 -40c-21 60 -61 90 -120 90c-88 0 -145 -63 -145 -163c0 -99 58 -162 143 -162
c65 0 110 38 127 97z" />
    <glyph glyph-name="Ccaron" unicode="&#x10c;" 
d="M376 702h-103l-102 135h66l88 -78l88 78h66zM476 221l83 -42c-31 -119 -115 -191 -238 -191c-76 0 -140 30 -191 91s-77 140 -77 236s26 174 77 235c52 61 116 92 193 92c111 0 191 -62 227 -166l-79 -48c-21 87 -74 139 -151 139c-50 0 -92 -23 -126 -69
s-51 -107 -51 -183c0 -75 17 -136 50 -183c34 -46 76 -69 125 -69c87 0 139 53 158 158z" />
    <glyph glyph-name="ccaron" unicode="&#x10d;" 
d="M375 505h-96l-102 165h61l89 -107l89 107h61zM449 153l69 -34c-27 -77 -95 -131 -198 -131c-67 0 -122 21 -165 64c-42 43 -63 98 -63 166s21 123 64 166s99 65 167 65c95 0 159 -46 190 -118l-69 -40c-21 60 -61 90 -120 90c-88 0 -145 -63 -145 -163
c0 -99 58 -162 143 -162c65 0 110 38 127 97z" />
    <glyph glyph-name="Dcaron" unicode="&#x10e;" 
d="M316 702h-103l-102 135h66l88 -78l88 78h66zM244 0h-166v630h166c97 0 175 -28 232 -84s86 -133 86 -231s-29 -175 -86 -231s-135 -84 -232 -84zM166 558v-486h68c153 0 237 88 237 243s-84 243 -237 243h-68z" />
    <glyph glyph-name="dcaron" unicode="&#x10f;" 
d="M676 636l-70 -208h-49l25 208h94zM426 209v19c0 47 -13 84 -40 113s-60 43 -99 43c-88 0 -142 -65 -142 -166s54 -166 142 -166c39 0 72 14 99 43s40 67 40 114zM506 0h-83v94c-24 -63 -78 -106 -157 -106c-63 0 -114 22 -151 65c-37 44 -56 99 -56 165
c0 67 19 122 56 165c37 44 88 66 151 66c77 0 133 -44 157 -107v288h83v-630z" />
    <glyph glyph-name="Dcroat" unicode="&#x110;" 
d="M244 0h-166v294h-54v70h54v266h166c97 0 175 -28 232 -84s86 -133 86 -231s-29 -175 -86 -231s-135 -84 -232 -84zM166 294v-222h68c153 0 237 88 237 243s-84 243 -237 243h-68v-194h153v-70h-153z" />
    <glyph glyph-name="dslash" unicode="&#x111;" 
d="M426 209v19c0 47 -13 84 -40 113s-60 43 -99 43c-88 0 -142 -65 -142 -166s54 -166 142 -166c39 0 72 14 99 43s40 67 40 114zM423 0v94c-24 -63 -78 -106 -157 -106c-63 0 -114 22 -151 65c-37 44 -56 99 -56 165c0 67 19 122 56 165c37 44 88 66 151 66
c77 0 133 -44 157 -107v163h-152v52h152v73h83v-73h60v-52h-60v-505h-83z" />
    <glyph glyph-name="Emacron" unicode="&#x112;" 
d="M478 707h-305v66h305v-66zM200 74h331v-74h-417v630h408v-74h-322v-192h229v-75h-229v-215z" />
    <glyph glyph-name="emacron" unicode="&#x113;" 
d="M462 544h-301v65h301v-65zM452 147l64 -38c-35 -81 -104 -121 -206 -121c-67 0 -121 21 -164 62s-64 95 -64 162c0 69 21 125 64 170s96 67 161 67c67 0 119 -21 156 -62s55 -92 55 -153v-26h-354c0 -46 14 -83 43 -112s64 -43 106 -43c69 0 115 31 139 94zM167 262h271
c-4 68 -52 122 -131 122c-76 0 -129 -54 -140 -122z" />
    <glyph glyph-name="Ebreve" unicode="&#x114;" 
d="M184 840h63c0 -51 26 -77 78 -77s78 26 78 77h61c0 -85 -55 -140 -139 -140s-141 55 -141 140zM200 74h331v-74h-417v630h408v-74h-322v-192h229v-75h-229v-215z" />
    <glyph glyph-name="ebreve" unicode="&#x115;" 
d="M313 503c-89 0 -143 69 -143 158h62c0 -55 26 -95 81 -95s80 40 80 95h62c0 -45 -13 -82 -39 -113c-25 -30 -60 -45 -103 -45zM452 147l64 -38c-35 -81 -104 -121 -206 -121c-67 0 -121 21 -164 62s-64 95 -64 162c0 69 21 125 64 170s96 67 161 67c67 0 119 -21 156 -62
s55 -92 55 -153v-26h-354c0 -46 14 -83 43 -112s64 -43 106 -43c69 0 115 31 139 94zM167 262h271c-4 68 -52 122 -131 122c-76 0 -129 -54 -140 -122z" />
    <glyph glyph-name="Edotaccent" unicode="&#x116;" 
d="M382 705h-113v108h113v-108zM200 74h331v-74h-417v630h408v-74h-322v-192h229v-75h-229v-215z" />
    <glyph glyph-name="edotaccent" unicode="&#x117;" 
d="M369 541h-113v107h113v-107zM452 147l64 -38c-35 -81 -104 -121 -206 -121c-67 0 -121 21 -164 62s-64 95 -64 162c0 69 21 125 64 170s96 67 161 67c67 0 119 -21 156 -62s55 -92 55 -153v-26h-354c0 -46 14 -83 43 -112s64 -43 106 -43c69 0 115 31 139 94zM167 262
h271c-4 68 -52 122 -131 122c-76 0 -129 -54 -140 -122z" />
    <glyph glyph-name="Eogonek" unicode="&#x118;" 
d="M481 -105l6 -44c-23 -20 -51 -30 -85 -30c-47 0 -80 25 -80 68c0 39 25 68 74 111h-282v630h408v-74h-322v-192h229v-75h-229v-215h331v-74h-76c-51 -47 -66 -67 -66 -94c0 -17 13 -31 36 -31c16 0 35 7 56 20z" />
    <glyph glyph-name="eogonek" unicode="&#x119;" 
d="M376 -179c-47 0 -80 25 -80 68c0 32 21 66 64 103c-20 -3 -37 -4 -50 -4c-67 0 -121 21 -164 62s-64 95 -64 162c0 69 21 125 64 170s96 67 161 67c67 0 119 -21 156 -62s55 -92 55 -153v-26h-354c0 -46 14 -83 43 -112s64 -43 106 -43c69 0 115 31 139 94l64 -38
c-15 -32 -36 -59 -63 -80c-60 -55 -90 -96 -90 -123c0 -17 13 -31 36 -31c16 0 35 7 56 20l6 -44c-23 -20 -51 -30 -85 -30zM167 262h271c-4 68 -52 122 -131 122c-76 0 -129 -54 -140 -122z" />
    <glyph glyph-name="Ecaron" unicode="&#x11a;" 
d="M376 702h-103l-102 135h66l88 -78l88 78h66zM200 74h331v-74h-417v630h408v-74h-322v-192h229v-75h-229v-215z" />
    <glyph glyph-name="ecaron" unicode="&#x11b;" 
d="M361 505h-96l-102 165h61l89 -107l89 107h61zM452 147l64 -38c-35 -81 -104 -121 -206 -121c-67 0 -121 21 -164 62s-64 95 -64 162c0 69 21 125 64 170s96 67 161 67c67 0 119 -21 156 -62s55 -92 55 -153v-26h-354c0 -46 14 -83 43 -112s64 -43 106 -43
c69 0 115 31 139 94zM167 262h271c-4 68 -52 122 -131 122c-76 0 -129 -54 -140 -122z" />
    <glyph glyph-name="Gcircumflex" unicode="&#x11c;" 
d="M170 702l102 135h103l103 -135h-66l-88 78l-88 -78h-66zM304 -12c-73 0 -133 30 -182 91c-48 61 -72 140 -72 236s25 174 76 235s115 92 192 92c109 0 186 -60 222 -163l-79 -49c-20 85 -71 137 -147 137c-50 0 -92 -23 -125 -69s-49 -107 -49 -183
c0 -77 16 -138 48 -184s72 -69 121 -69c93 0 150 72 158 183h-170v66h244v-311h-57l-11 114c-21 -79 -86 -126 -169 -126z" />
    <glyph glyph-name="gcircumflex" unicode="&#x11d;" 
d="M162 506l102 165h96l102 -165h-61l-89 107l-89 -107h-61zM399 301c0 55 -46 93 -105 93s-105 -38 -105 -93c0 -56 45 -94 105 -94s105 38 105 94zM561 -28c0 -35 -14 -64 -41 -87c-53 -48 -132 -65 -223 -65c-69 0 -127 11 -173 32c-45 21 -68 51 -68 91
c0 45 44 83 103 90c-45 13 -68 38 -68 77c0 37 23 64 68 82c-37 26 -55 62 -55 109c0 89 78 148 190 148c55 0 100 -14 136 -41c28 47 84 82 144 74l9 -73c-40 8 -94 -9 -121 -36c14 -21 21 -45 21 -72c0 -89 -77 -148 -189 -148c-37 0 -70 6 -98 18
c-23 -11 -34 -26 -34 -45c0 -25 20 -37 61 -37h178c99 0 160 -46 160 -117zM136 -46c0 -52 66 -79 161 -79c108 0 183 30 183 87c0 38 -33 57 -98 57h-150c-52 0 -96 -25 -96 -65z" />
    <glyph glyph-name="Gbreve" unicode="&#x11e;" 
d="M183 840h63c0 -51 26 -77 78 -77s78 26 78 77h61c0 -85 -55 -140 -139 -140s-141 55 -141 140zM304 -12c-73 0 -133 30 -182 91c-48 61 -72 140 -72 236s25 174 76 235s115 92 192 92c109 0 186 -60 222 -163l-79 -49c-20 85 -71 137 -147 137c-50 0 -92 -23 -125 -69
s-49 -107 -49 -183c0 -77 16 -138 48 -184s72 -69 121 -69c93 0 150 72 158 183h-170v66h244v-311h-57l-11 114c-21 -79 -86 -126 -169 -126z" />
    <glyph glyph-name="gbreve" unicode="&#x11f;" 
d="M312 503c-89 0 -143 69 -143 158h62c0 -55 26 -95 81 -95s80 40 80 95h62c0 -45 -13 -82 -39 -113c-25 -30 -60 -45 -103 -45zM399 301c0 55 -46 93 -105 93s-105 -38 -105 -93c0 -56 45 -94 105 -94s105 38 105 94zM561 -28c0 -35 -14 -64 -41 -87
c-53 -48 -132 -65 -223 -65c-69 0 -127 11 -173 32c-45 21 -68 51 -68 91c0 45 44 83 103 90c-45 13 -68 38 -68 77c0 37 23 64 68 82c-37 26 -55 62 -55 109c0 89 78 148 190 148c55 0 100 -14 136 -41c28 47 84 82 144 74l9 -73c-40 8 -94 -9 -121 -36
c14 -21 21 -45 21 -72c0 -89 -77 -148 -189 -148c-37 0 -70 6 -98 18c-23 -11 -34 -26 -34 -45c0 -25 20 -37 61 -37h178c99 0 160 -46 160 -117zM136 -46c0 -52 66 -79 161 -79c108 0 183 30 183 87c0 38 -33 57 -98 57h-150c-52 0 -96 -25 -96 -65z" />
    <glyph glyph-name="Gdotaccent" unicode="&#x120;" 
d="M381 705h-113v108h113v-108zM304 -12c-73 0 -133 30 -182 91c-48 61 -72 140 -72 236s25 174 76 235s115 92 192 92c109 0 186 -60 222 -163l-79 -49c-20 85 -71 137 -147 137c-50 0 -92 -23 -125 -69s-49 -107 -49 -183c0 -77 16 -138 48 -184s72 -69 121 -69
c93 0 150 72 158 183h-170v66h244v-311h-57l-11 114c-21 -79 -86 -126 -169 -126z" />
    <glyph glyph-name="gdotaccent" unicode="&#x121;" 
d="M368 541h-113v107h113v-107zM399 301c0 55 -46 93 -105 93s-105 -38 -105 -93c0 -56 45 -94 105 -94s105 38 105 94zM561 -28c0 -35 -14 -64 -41 -87c-53 -48 -132 -65 -223 -65c-69 0 -127 11 -173 32c-45 21 -68 51 -68 91c0 45 44 83 103 90c-45 13 -68 38 -68 77
c0 37 23 64 68 82c-37 26 -55 62 -55 109c0 89 78 148 190 148c55 0 100 -14 136 -41c28 47 84 82 144 74l9 -73c-40 8 -94 -9 -121 -36c14 -21 21 -45 21 -72c0 -89 -77 -148 -189 -148c-37 0 -70 6 -98 18c-23 -11 -34 -26 -34 -45c0 -25 20 -37 61 -37h178
c99 0 160 -46 160 -117zM136 -46c0 -52 66 -79 161 -79c108 0 183 30 183 87c0 38 -33 57 -98 57h-150c-52 0 -96 -25 -96 -65z" />
    <glyph glyph-name="uni0122" unicode="&#x122;" 
d="M304 -12c-73 0 -133 30 -182 91c-48 61 -72 140 -72 236s25 174 76 235s115 92 192 92c109 0 186 -60 222 -163l-79 -49c-20 85 -71 137 -147 137c-50 0 -92 -23 -125 -69s-49 -107 -49 -183c0 -77 16 -138 48 -184s72 -69 121 -69c93 0 150 72 158 183h-170v66h244v-311
h-57l-11 114c-21 -79 -86 -126 -169 -126zM319 -133h-49v80h113v-75c0 -76 -51 -113 -127 -113v44c42 0 63 21 63 64z" />
    <glyph glyph-name="uni0123" unicode="&#x123;" 
d="M316 594h50v-81h-113v75c0 76 51 114 127 114v-45c-43 0 -64 -21 -64 -63zM399 301c0 55 -46 93 -105 93s-105 -38 -105 -93c0 -56 45 -94 105 -94s105 38 105 94zM561 -28c0 -35 -14 -64 -41 -87c-53 -48 -132 -65 -223 -65c-69 0 -127 11 -173 32c-45 21 -68 51 -68 91
c0 45 44 83 103 90c-45 13 -68 38 -68 77c0 37 23 64 68 82c-37 26 -55 62 -55 109c0 89 78 148 190 148c55 0 100 -14 136 -41c28 47 84 82 144 74l9 -73c-40 8 -94 -9 -121 -36c14 -21 21 -45 21 -72c0 -89 -77 -148 -189 -148c-37 0 -70 6 -98 18
c-23 -11 -34 -26 -34 -45c0 -25 20 -37 61 -37h178c99 0 160 -46 160 -117zM136 -46c0 -52 66 -79 161 -79c108 0 183 30 183 87c0 38 -33 57 -98 57h-150c-52 0 -96 -25 -96 -65z" />
    <glyph glyph-name="Hcircumflex" unicode="&#x124;" 
d="M153 702l102 135h103l103 -135h-66l-88 78l-88 -78h-66zM160 289v-289h-88v630h88v-266h294v266h88v-630h-88v289h-294z" />
    <glyph glyph-name="hcircumflex" unicode="&#x125;" 
d="M156 702l102 135h103l103 -135h-66l-88 78l-88 -78h-66zM192 236v-236h-83v630h83v-282c21 57 82 101 157 101c111 0 164 -70 164 -178v-271h-83v260c0 75 -39 119 -110 119c-75 0 -128 -58 -128 -143z" />
    <glyph glyph-name="Hbar" unicode="&#x126;" 
d="M160 438v-120h294v120h-294zM454 243h-294v-243h-88v438h-48v70h48v122h88v-122h294v122h88v-122h48v-70h-48v-438h-88v243z" />
    <glyph glyph-name="hbar" unicode="&#x127;" 
d="M192 236v-236h-83v505h-66v52h66v73h83v-73h146v-52h-146v-157c21 57 82 101 157 101c111 0 164 -70 164 -178v-271h-83v260c0 75 -39 119 -110 119c-75 0 -128 -58 -128 -143z" />
    <glyph glyph-name="Itilde" unicode="&#x128;" 
d="M203 701h-62c0 77 35 137 92 137c20 0 44 -12 73 -35s50 -34 62 -34c21 0 33 22 36 67h62c0 -77 -36 -137 -93 -137c-19 0 -44 12 -73 35s-49 35 -61 35c-21 0 -33 -23 -36 -68zM528 75v-75h-443v75h178v480h-178v75h443v-75h-177v-480h177z" />
    <glyph glyph-name="itilde" unicode="&#x129;" 
d="M224 522h-61c0 77 35 136 92 136c19 0 42 -11 69 -34s46 -34 58 -34c21 0 33 22 36 66h62c0 -77 -36 -136 -93 -136c-19 0 -42 11 -69 34c-26 23 -45 35 -58 35c-21 0 -33 -22 -36 -67zM557 64v-64h-455v64h186v308h-166v65h248v-373h187z" />
    <glyph glyph-name="Imacron" unicode="&#x12a;" 
d="M459 707h-305v66h305v-66zM528 75v-75h-443v75h178v480h-178v75h443v-75h-177v-480h177z" />
    <glyph glyph-name="imacron" unicode="&#x12b;" 
d="M472 544h-301v65h301v-65zM557 64v-64h-455v64h186v308h-166v65h248v-373h187z" />
    <glyph glyph-name="Ibreve" unicode="&#x12c;" 
d="M165 840h63c0 -51 26 -77 78 -77s78 26 78 77h61c0 -85 -55 -140 -139 -140s-141 55 -141 140zM528 75v-75h-443v75h178v480h-178v75h443v-75h-177v-480h177z" />
    <glyph glyph-name="ibreve" unicode="&#x12d;" 
d="M322 503c-89 0 -143 69 -143 158h62c0 -55 26 -95 81 -95s80 40 80 95h62c0 -45 -13 -82 -39 -113c-25 -30 -60 -45 -103 -45zM557 64v-64h-455v64h186v308h-166v65h248v-373h187z" />
    <glyph glyph-name="Iogonek" unicode="&#x12e;" 
d="M382 -105l6 -44c-23 -20 -51 -30 -85 -30c-47 0 -80 25 -80 68c0 39 25 68 74 111h-212v75h178v480h-178v75h443v-75h-177v-480h177v-75h-172c-51 -47 -66 -67 -66 -94c0 -17 13 -31 36 -31c16 0 35 7 56 20z" />
    <glyph glyph-name="iogonek" unicode="&#x12f;" 
d="M380 541h-113v107h113v-107zM398 -105l6 -44c-23 -20 -51 -30 -85 -30c-47 0 -80 25 -80 68c0 39 25 68 74 111h-211v64h186v308h-166v65h248v-373h187v-64h-185c-51 -47 -66 -67 -66 -94c0 -17 13 -31 36 -31c16 0 35 7 56 20z" />
    <glyph glyph-name="Idot" unicode="&#x130;" 
d="M362 705h-113v108h113v-108zM528 75v-75h-443v75h178v480h-178v75h443v-75h-177v-480h177z" />
    <glyph glyph-name="dotlessi" unicode="&#x131;" 
d="M557 64v-64h-455v64h186v308h-166v65h248v-373h187z" />
    <glyph glyph-name="Jcircumflex" unicode="&#x134;" 
d="M316 702l102 135h103l103 -135h-66l-88 78l-88 -78h-66zM424 220v410h88v-411c0 -144 -87 -231 -220 -231c-72 0 -128 23 -169 70c-40 47 -57 108 -52 184l91 21c-15 -121 32 -199 131 -199c87 0 131 52 131 156z" />
    <glyph glyph-name="jcircumflex" unicode="&#x135;" 
d="M257 506l102 165h96l102 -165h-61l-89 107l-89 -107h-61zM248 -180c-88 0 -163 48 -188 115l49 66c32 -72 72 -108 137 -108c67 0 119 44 119 127v352h-215v65h298v-425c0 -59 -19 -106 -57 -140c-38 -35 -86 -52 -143 -52z" />
    <glyph glyph-name="uni0136" unicode="&#x136;" 
d="M329 372l267 -372h-104l-224 312l-99 -112v-200h-88v630h88v-330l295 330h103zM305 -133h-49v80h113v-75c0 -76 -51 -113 -127 -113v44c42 0 63 21 63 64z" />
    <glyph glyph-name="uni0137" unicode="&#x137;" 
d="M280 217l-89 -72v-145h-83v630h83v-405l261 212h108l-219 -173l229 -264h-101zM297 -133h-49v80h113v-75c0 -76 -51 -113 -127 -113v44c42 0 63 21 63 64z" />
    <glyph glyph-name="kgreenlandic" unicode="&#x138;" 
d="M269 217l-75 -64v-153h-83v437h83v-204l238 204h101l-204 -171l213 -266h-96z" />
    <glyph glyph-name="Lacute" unicode="&#x139;" 
d="M319 843l-137 -141h-63l77 141h123zM120 0v630h88v-554h325v-76h-413z" />
    <glyph glyph-name="lacute" unicode="&#x13a;" 
d="M476 843l-137 -141h-63l77 141h123zM555 63v-63h-455v63h186v504h-166v63h248v-567h187z" />
    <glyph glyph-name="uni013B" unicode="&#x13b;" 
d="M120 0v630h88v-554h325v-76h-413zM309 -133h-49v80h113v-75c0 -76 -51 -113 -127 -113v44c42 0 63 21 63 64z" />
    <glyph glyph-name="uni013C" unicode="&#x13c;" 
d="M555 63v-63h-455v63h186v504h-166v63h248v-567h187zM322 -133h-49v80h113v-75c0 -76 -51 -113 -127 -113v44c42 0 63 21 63 64z" />
    <glyph glyph-name="Lcaron" unicode="&#x13d;" 
d="M517 636l-70 -208h-49l25 208h94zM120 0v630h88v-554h325v-76h-413z" />
    <glyph glyph-name="lcaron" unicode="&#x13e;" 
d="M594 636l-70 -208h-49l25 208h94zM555 63v-63h-455v63h186v504h-166v63h248v-567h187z" />
    <glyph glyph-name="Ldot" unicode="&#x13f;" 
d="M120 0v630h88v-554h325v-76h-413zM548 292h-113v107h113v-107z" />
    <glyph glyph-name="ldot" unicode="&#x140;" 
d="M555 63v-63h-455v63h186v504h-166v63h248v-567h187zM646 260h-113v107h113v-107z" />
    <glyph glyph-name="Lslash" unicode="&#x141;" 
d="M533 76v-76h-413v261l-80 -30v71l80 30v298h88v-264l173 66v-71l-173 -66v-219h325z" />
    <glyph glyph-name="lslash" unicode="&#x142;" 
d="M555 63v-63h-455v63h186v227l-138 -57v61l138 57v216h-166v63h248v-245l131 55v-60l-131 -55v-262h187z" />
    <glyph glyph-name="Nacute" unicode="&#x143;" 
d="M457 843l-137 -141h-63l77 141h123zM72 630h102l287 -488v488h81v-630h-77l-312 520v-520h-81v630z" />
    <glyph glyph-name="nacute" unicode="&#x144;" 
d="M342 514h-56l59 162h112zM191 236v-236h-83v437h83v-89c23 57 82 101 157 101c111 0 165 -70 165 -178v-271h-83v260c0 75 -39 119 -110 119c-75 0 -129 -58 -129 -143z" />
    <glyph glyph-name="uni0145" unicode="&#x145;" 
d="M72 630h102l287 -488v488h81v-630h-77l-312 520v-520h-81v630zM304 -133h-49v80h113v-75c0 -76 -51 -113 -127 -113v44c42 0 63 21 63 64z" />
    <glyph glyph-name="uni0146" unicode="&#x146;" 
d="M191 236v-236h-83v437h83v-89c23 57 82 101 157 101c111 0 165 -70 165 -178v-271h-83v260c0 75 -39 119 -110 119c-75 0 -129 -58 -129 -143zM317 -133h-49v80h113v-75c0 -76 -51 -113 -127 -113v44c42 0 63 21 63 64z" />
    <glyph glyph-name="Ncaron" unicode="&#x147;" 
d="M359 702h-103l-102 135h66l88 -78l88 78h66zM72 630h102l287 -488v488h81v-630h-77l-312 520v-520h-81v630z" />
    <glyph glyph-name="ncaron" unicode="&#x148;" 
d="M370 505h-96l-102 165h61l89 -107l89 107h61zM191 236v-236h-83v437h83v-89c23 57 82 101 157 101c111 0 165 -70 165 -178v-271h-83v260c0 75 -39 119 -110 119c-75 0 -129 -58 -129 -143z" />
    <glyph glyph-name="Eng" unicode="&#x14a;" 
d="M461 9l-308 511v-520h-81v630h102l287 -488v488h81v-641c0 -113 -60 -169 -153 -169c-69 0 -124 31 -152 79l48 47c27 -37 59 -56 98 -56c56 0 77 35 78 119z" />
    <glyph glyph-name="eng" unicode="&#x14b;" 
d="M397 -180c-37 0 -69 11 -98 32l20 52c23 -15 46 -23 69 -23c28 0 42 16 42 48v331c0 75 -39 119 -110 119c-75 0 -129 -58 -129 -143v-236h-83v437h83v-89c23 57 82 101 157 101c111 0 165 -70 165 -178v-331c0 -80 -39 -120 -116 -120z" />
    <glyph glyph-name="Omacron" unicode="&#x14c;" 
d="M460 707h-305v66h305v-66zM495 551c49 -61 74 -139 74 -236s-25 -175 -74 -236s-111 -91 -188 -91s-140 30 -189 91s-73 139 -73 236s24 175 73 236s112 91 189 91s139 -30 188 -91zM432 132c31 45 47 106 47 183s-16 138 -47 183s-73 68 -125 68s-94 -23 -125 -68
s-47 -106 -47 -183s16 -138 47 -183s73 -68 125 -68s94 23 125 68z" />
    <glyph glyph-name="omacron" unicode="&#x14d;" 
d="M457 544h-301v65h301v-65zM540 218c0 -67 -22 -122 -67 -165s-100 -65 -166 -65s-121 22 -166 65c-44 43 -66 98 -66 165s22 123 66 166c45 43 100 65 166 65s121 -22 166 -65s67 -99 67 -166zM162 218c0 -99 57 -164 145 -164c89 0 146 65 146 164
c0 100 -57 165 -146 165c-88 0 -145 -65 -145 -165z" />
    <glyph glyph-name="Obreve" unicode="&#x14e;" 
d="M166 840h63c0 -51 26 -77 78 -77s78 26 78 77h61c0 -85 -55 -140 -139 -140s-141 55 -141 140zM495 551c49 -61 74 -139 74 -236s-25 -175 -74 -236s-111 -91 -188 -91s-140 30 -189 91s-73 139 -73 236s24 175 73 236s112 91 189 91s139 -30 188 -91zM432 132
c31 45 47 106 47 183s-16 138 -47 183s-73 68 -125 68s-94 -23 -125 -68s-47 -106 -47 -183s16 -138 47 -183s73 -68 125 -68s94 23 125 68z" />
    <glyph glyph-name="obreve" unicode="&#x14f;" 
d="M307 503c-89 0 -143 69 -143 158h62c0 -55 26 -95 81 -95s80 40 80 95h62c0 -45 -13 -82 -39 -113c-25 -30 -60 -45 -103 -45zM540 218c0 -67 -22 -122 -67 -165s-100 -65 -166 -65s-121 22 -166 65c-44 43 -66 98 -66 165s22 123 66 166c45 43 100 65 166 65
s121 -22 166 -65s67 -99 67 -166zM162 218c0 -99 57 -164 145 -164c89 0 146 65 146 164c0 100 -57 165 -146 165c-88 0 -145 -65 -145 -165z" />
    <glyph glyph-name="Ohungarumlaut" unicode="&#x150;" 
d="M542 838l-127 -136h-58l75 136h110zM378 838l-127 -136h-57l74 136h110zM495 551c49 -61 74 -139 74 -236s-25 -175 -74 -236s-111 -91 -188 -91s-140 30 -189 91s-73 139 -73 236s24 175 73 236s112 91 189 91s139 -30 188 -91zM432 132c31 45 47 106 47 183
s-16 138 -47 183s-73 68 -125 68s-94 -23 -125 -68s-47 -106 -47 -183s16 -138 47 -183s73 -68 125 -68s94 23 125 68z" />
    <glyph glyph-name="ohungarumlaut" unicode="&#x151;" 
d="M422 514h-54l55 162h106zM246 514h-55l56 162h105zM540 218c0 -67 -22 -122 -67 -165s-100 -65 -166 -65s-121 22 -166 65c-44 43 -66 98 -66 165s22 123 66 166c45 43 100 65 166 65s121 -22 166 -65s67 -99 67 -166zM162 218c0 -99 57 -164 145 -164
c89 0 146 65 146 164c0 100 -57 165 -146 165c-88 0 -145 -65 -145 -165z" />
    <glyph glyph-name="OE" unicode="&#x152;" 
d="M605 0h-330c-69 0 -129 29 -178 86c-49 58 -74 134 -74 229s25 171 74 228c49 58 109 87 178 87h325v-74h-215v-192h159v-75h-159v-215h220v-74zM304 72v486h-25c-49 0 -91 -22 -124 -66s-50 -103 -50 -177s17 -133 50 -177s75 -66 124 -66h25z" />
    <glyph glyph-name="oe" unicode="&#x153;" 
d="M537 147l59 -34c-24 -79 -77 -125 -148 -125c-56 0 -106 38 -134 95c-31 -63 -75 -95 -131 -95c-47 0 -86 22 -117 65s-47 98 -47 165s16 123 47 166s70 65 117 65c56 0 105 -38 134 -98c27 60 74 98 127 98c48 0 85 -21 112 -63c27 -41 40 -92 40 -152v-26h-243
c0 -95 39 -155 95 -155c49 0 70 27 89 94zM355 262h169c-5 81 -32 122 -80 122c-49 0 -79 -41 -89 -122zM94 218c0 -97 37 -164 89 -164c56 0 92 65 92 164c0 100 -36 165 -92 165c-52 0 -89 -66 -89 -165z" />
    <glyph glyph-name="Racute" unicode="&#x154;" 
d="M445 843l-137 -141h-63l77 141h123zM306 557h-146v-211h139c105 0 157 35 157 106c0 70 -50 105 -150 105zM583 7v-7h-105c-21 9 -35 51 -42 127c-8 103 -42 149 -127 149h-149v-276h-86v630h238c155 0 232 -66 232 -175c0 -39 -15 -72 -45 -99s-66 -42 -108 -45
c67 -11 108 -59 122 -144c16 -101 34 -139 70 -160z" />
    <glyph glyph-name="racute" unicode="&#x155;" 
d="M341 514h-56l59 162h112zM346 377c-41 0 -76 -19 -105 -58c-29 -38 -44 -82 -44 -133v-186h-83v437h83v-126c23 77 86 138 175 138c47 0 85 -15 112 -45c28 -30 42 -66 42 -107c0 -19 -1 -32 -4 -39l-77 -22c3 9 5 22 5 41c0 60 -36 100 -104 100z" />
    <glyph glyph-name="uni0156" unicode="&#x156;" 
d="M306 557h-146v-211h139c105 0 157 35 157 106c0 70 -50 105 -150 105zM583 7v-7h-105c-21 9 -35 51 -42 127c-8 103 -42 149 -127 149h-149v-276h-86v630h238c155 0 232 -66 232 -175c0 -39 -15 -72 -45 -99s-66 -42 -108 -45c67 -11 108 -59 122 -144
c16 -101 34 -139 70 -160zM292 -133h-49v80h113v-75c0 -76 -51 -113 -127 -113v44c42 0 63 21 63 64z" />
    <glyph glyph-name="uni0157" unicode="&#x157;" 
d="M346 377c-41 0 -76 -19 -105 -58c-29 -38 -44 -82 -44 -133v-186h-83v437h83v-126c23 77 86 138 175 138c47 0 85 -15 112 -45c28 -30 42 -66 42 -107c0 -19 -1 -32 -4 -39l-77 -22c3 9 5 22 5 41c0 60 -36 100 -104 100zM146 -133h-49v80h113v-75
c0 -76 -51 -113 -127 -113v44c42 0 63 21 63 64z" />
    <glyph glyph-name="Rcaron" unicode="&#x158;" 
d="M347 702h-103l-102 135h66l88 -78l88 78h66zM306 557h-146v-211h139c105 0 157 35 157 106c0 70 -50 105 -150 105zM583 7v-7h-105c-21 9 -35 51 -42 127c-8 103 -42 149 -127 149h-149v-276h-86v630h238c155 0 232 -66 232 -175c0 -39 -15 -72 -45 -99s-66 -42 -108 -45
c67 -11 108 -59 122 -144c16 -101 34 -139 70 -160z" />
    <glyph glyph-name="rcaron" unicode="&#x159;" 
d="M368 505h-96l-102 165h61l89 -107l89 107h61zM346 377c-41 0 -76 -19 -105 -58c-29 -38 -44 -82 -44 -133v-186h-83v437h83v-126c23 77 86 138 175 138c47 0 85 -15 112 -45c28 -30 42 -66 42 -107c0 -19 -1 -32 -4 -39l-77 -22c3 9 5 22 5 41c0 60 -36 100 -104 100z
" />
    <glyph glyph-name="Sacute" unicode="&#x15a;" 
d="M452 843l-137 -141h-63l77 141h123zM52 132l53 66c37 -88 120 -138 209 -138s149 38 149 109c0 53 -34 79 -106 96l-125 30c-101 23 -151 78 -151 165c0 53 19 97 58 131s90 51 152 51c108 0 191 -49 232 -124l-56 -61c-31 68 -95 113 -176 113c-79 0 -128 -39 -128 -106
c0 -55 35 -77 107 -94l111 -26c103 -24 163 -73 163 -173c0 -56 -22 -101 -65 -134s-98 -49 -165 -49c-58 0 -111 13 -159 38c-48 26 -82 61 -103 106z" />
    <glyph glyph-name="sacute" unicode="&#x15b;" 
d="M327 514h-56l59 162h112zM84 88l51 55c31 -57 101 -91 174 -91c77 0 115 21 115 63c0 32 -24 48 -73 59l-107 23c-88 19 -132 60 -132 123c0 38 17 69 51 93s77 36 128 36c93 0 158 -30 197 -90l-56 -46c-25 44 -78 71 -141 71c-57 0 -100 -23 -100 -58
c0 -31 22 -48 71 -59l122 -27c80 -17 120 -56 120 -119c0 -40 -18 -72 -55 -97c-36 -24 -82 -36 -139 -36c-97 0 -187 39 -226 100z" />
    <glyph glyph-name="Scircumflex" unicode="&#x15c;" 
d="M150 702l102 135h103l103 -135h-66l-88 78l-88 -78h-66zM52 132l53 66c37 -88 120 -138 209 -138s149 38 149 109c0 53 -34 79 -106 96l-125 30c-101 23 -151 78 -151 165c0 53 19 97 58 131s90 51 152 51c108 0 191 -49 232 -124l-56 -61c-31 68 -95 113 -176 113
c-79 0 -128 -39 -128 -106c0 -55 35 -77 107 -94l111 -26c103 -24 163 -73 163 -173c0 -56 -22 -101 -65 -134s-98 -49 -165 -49c-58 0 -111 13 -159 38c-48 26 -82 61 -103 106z" />
    <glyph glyph-name="scircumflex" unicode="&#x15d;" 
d="M157 506l102 165h96l102 -165h-61l-89 107l-89 -107h-61zM84 88l51 55c31 -57 101 -91 174 -91c77 0 115 21 115 63c0 32 -24 48 -73 59l-107 23c-88 19 -132 60 -132 123c0 38 17 69 51 93s77 36 128 36c93 0 158 -30 197 -90l-56 -46c-25 44 -78 71 -141 71
c-57 0 -100 -23 -100 -58c0 -31 22 -48 71 -59l122 -27c80 -17 120 -56 120 -119c0 -40 -18 -72 -55 -97c-36 -24 -82 -36 -139 -36c-97 0 -187 39 -226 100z" />
    <glyph glyph-name="uni015E" unicode="&#x15e;" 
d="M318 -209c-45 0 -82 14 -113 42l20 41c28 -24 57 -36 88 -36c33 0 49 11 49 34c0 17 -10 28 -30 33s-38 2 -54 -7l-28 14l47 76c-109 5 -205 59 -245 144l53 66c37 -88 120 -138 209 -138s149 38 149 109c0 53 -34 79 -106 96l-125 30c-101 23 -151 78 -151 165
c0 53 19 97 58 131s90 51 152 51c108 0 191 -49 232 -124l-56 -61c-31 68 -95 113 -176 113c-79 0 -128 -39 -128 -106c0 -55 35 -77 107 -94l111 -26c103 -24 163 -73 163 -173c0 -52 -19 -94 -56 -126s-86 -51 -145 -56l-29 -46c28 6 54 3 78 -9c25 -12 37 -31 37 -58
c0 -55 -51 -85 -111 -85z" />
    <glyph glyph-name="uni015F" unicode="&#x15f;" 
d="M297 -209c-45 0 -82 14 -113 42l20 41c28 -24 57 -36 88 -36c33 0 49 11 49 34c0 17 -10 28 -30 33s-38 2 -54 -7l-28 14l48 78c-85 7 -160 43 -193 98l51 55c31 -57 101 -91 174 -91c77 0 115 21 115 63c0 32 -24 48 -73 59l-107 23c-88 19 -132 60 -132 123
c0 38 17 69 51 93s77 36 128 36c93 0 158 -30 197 -90l-56 -46c-25 44 -78 71 -141 71c-57 0 -100 -23 -100 -58c0 -31 22 -48 71 -59l122 -27c80 -17 120 -56 120 -119c0 -77 -75 -129 -182 -133l-29 -45c28 6 54 3 78 -9c25 -12 37 -31 37 -58c0 -55 -51 -85 -111 -85z
" />
    <glyph glyph-name="Scaron" unicode="&#x160;" 
d="M355 702h-103l-102 135h66l88 -78l88 78h66zM52 132l53 66c37 -88 120 -138 209 -138s149 38 149 109c0 53 -34 79 -106 96l-125 30c-101 23 -151 78 -151 165c0 53 19 97 58 131s90 51 152 51c108 0 191 -49 232 -124l-56 -61c-31 68 -95 113 -176 113
c-79 0 -128 -39 -128 -106c0 -55 35 -77 107 -94l111 -26c103 -24 163 -73 163 -173c0 -56 -22 -101 -65 -134s-98 -49 -165 -49c-58 0 -111 13 -159 38c-48 26 -82 61 -103 106z" />
    <glyph glyph-name="scaron" unicode="&#x161;" 
d="M355 505h-96l-102 165h61l89 -107l89 107h61zM84 88l51 55c31 -57 101 -91 174 -91c77 0 115 21 115 63c0 32 -24 48 -73 59l-107 23c-88 19 -132 60 -132 123c0 38 17 69 51 93s77 36 128 36c93 0 158 -30 197 -90l-56 -46c-25 44 -78 71 -141 71
c-57 0 -100 -23 -100 -58c0 -31 22 -48 71 -59l122 -27c80 -17 120 -56 120 -119c0 -40 -18 -72 -55 -97c-36 -24 -82 -36 -139 -36c-97 0 -187 39 -226 100z" />
    <glyph glyph-name="uni0162" unicode="&#x162;" 
d="M302 -209c-45 0 -82 14 -113 42l20 41c28 -24 57 -36 88 -36c33 0 49 11 49 34c0 17 -10 28 -30 33s-38 2 -54 -7l-28 14l54 88h-26v554h-223v76h536v-76h-226v-554h-15l-36 -57c28 6 54 3 78 -9c25 -12 37 -31 37 -58c0 -55 -51 -85 -111 -85z" />
    <glyph glyph-name="uni0163" unicode="&#x163;" 
d="M362 -209c-45 0 -82 14 -113 42l20 41c28 -24 57 -36 88 -36c33 0 49 11 49 34c0 17 -10 28 -30 33s-38 2 -54 -7l-28 14l48 78c-96 13 -162 79 -162 186v176h-142v62h142v144l81 25v-169h245v-62h-245v-169c0 -79 53 -123 120 -123c65 0 112 36 143 108l44 -63
c-13 -31 -36 -57 -70 -80c-33 -23 -70 -35 -111 -37l-29 -45c28 6 54 3 78 -9c25 -12 37 -31 37 -58c0 -55 -51 -85 -111 -85z" />
    <glyph glyph-name="Tcaron" unicode="&#x164;" 
d="M358 702h-103l-102 135h66l88 -78l88 78h66zM349 554v-554h-87v554h-223v76h536v-76h-226z" />
    <glyph glyph-name="tcaron" unicode="&#x165;" 
d="M455 688l-70 -208h-49l25 208h94zM38 352v62h142v144l81 25v-169h245v-62h-245v-169c0 -79 53 -123 120 -123c65 0 112 36 143 108l44 -63c-13 -32 -38 -60 -73 -83s-75 -34 -118 -34c-57 0 -105 16 -142 49s-55 79 -55 139v176h-142z" />
    <glyph glyph-name="Tbar" unicode="&#x166;" 
d="M485 366v-70h-136v-296h-87v296h-136v70h136v188h-223v76h536v-76h-226v-188h136z" />
    <glyph glyph-name="tbar" unicode="&#x167;" 
d="M524 168l44 -63c-13 -32 -38 -60 -73 -83s-75 -34 -118 -34c-57 0 -105 16 -142 49s-55 79 -55 139v55h-141v56h141v74h-142v58h142v139l81 25v-164h245v-58h-245v-74h233v-56h-233v-48c0 -79 53 -123 120 -123c65 0 112 36 143 108z" />
    <glyph glyph-name="Utilde" unicode="&#x168;" 
d="M205 701h-62c0 77 35 137 92 137c20 0 44 -12 73 -35s50 -34 62 -34c21 0 33 22 36 67h62c0 -77 -36 -137 -93 -137c-19 0 -44 12 -73 35s-49 35 -61 35c-21 0 -33 -23 -36 -68zM308 -12c-69 0 -126 22 -171 67c-44 45 -66 111 -66 198v377h87v-371
c0 -130 50 -195 150 -195c97 0 150 67 150 195v371h86v-377c0 -87 -22 -153 -67 -198s-101 -67 -169 -67z" />
    <glyph glyph-name="utilde" unicode="&#x169;" 
d="M206 522h-61c0 77 35 136 92 136c19 0 42 -11 69 -34s46 -34 58 -34c21 0 33 22 36 66h62c0 -77 -36 -136 -93 -136c-19 0 -42 11 -69 34c-26 23 -45 35 -58 35c-21 0 -33 -22 -36 -67zM422 200v237h83v-437h-83v89c-21 -57 -82 -101 -157 -101c-109 0 -162 69 -162 177
v272h83v-260c0 -76 37 -120 108 -120c73 0 128 59 128 143z" />
    <glyph glyph-name="Umacron" unicode="&#x16a;" 
d="M460 707h-305v66h305v-66zM308 -12c-69 0 -126 22 -171 67c-44 45 -66 111 -66 198v377h87v-371c0 -130 50 -195 150 -195c97 0 150 67 150 195v371h86v-377c0 -87 -22 -153 -67 -198s-101 -67 -169 -67z" />
    <glyph glyph-name="umacron" unicode="&#x16b;" 
d="M455 544h-301v65h301v-65zM422 200v237h83v-437h-83v89c-21 -57 -82 -101 -157 -101c-109 0 -162 69 -162 177v272h83v-260c0 -76 37 -120 108 -120c73 0 128 59 128 143z" />
    <glyph glyph-name="Ubreve" unicode="&#x16c;" 
d="M166 840h63c0 -51 26 -77 78 -77s78 26 78 77h61c0 -85 -55 -140 -139 -140s-141 55 -141 140zM308 -12c-69 0 -126 22 -171 67c-44 45 -66 111 -66 198v377h87v-371c0 -130 50 -195 150 -195c97 0 150 67 150 195v371h86v-377c0 -87 -22 -153 -67 -198
s-101 -67 -169 -67z" />
    <glyph glyph-name="ubreve" unicode="&#x16d;" 
d="M305 503c-89 0 -143 69 -143 158h62c0 -55 26 -95 81 -95s80 40 80 95h62c0 -45 -13 -82 -39 -113c-25 -30 -60 -45 -103 -45zM422 200v237h83v-437h-83v89c-21 -57 -82 -101 -157 -101c-109 0 -162 69 -162 177v272h83v-260c0 -76 37 -120 108 -120c73 0 128 59 128 143
z" />
    <glyph glyph-name="Uring" unicode="&#x16e;" 
d="M207 770c0 55 41 95 100 95s99 -40 99 -95c0 -56 -40 -96 -99 -96c-60 0 -100 40 -100 96zM257 770c0 -31 18 -50 50 -50c33 0 49 17 49 50c0 29 -17 49 -49 49s-50 -20 -50 -49zM308 -12c-69 0 -126 22 -171 67c-44 45 -66 111 -66 198v377h87v-371
c0 -130 50 -195 150 -195c97 0 150 67 150 195v371h86v-377c0 -87 -22 -153 -67 -198s-101 -67 -169 -67z" />
    <glyph glyph-name="uring" unicode="&#x16f;" 
d="M205 605c0 55 41 95 100 95s99 -40 99 -95c0 -56 -40 -96 -99 -96c-60 0 -100 40 -100 96zM354 605c0 33 -16 49 -49 49c-48 5 -64 -56 -37 -85c9 -9 21 -14 37 -14c32 0 49 19 49 50zM422 200v237h83v-437h-83v89c-21 -57 -82 -101 -157 -101c-109 0 -162 69 -162 177
v272h83v-260c0 -76 37 -120 108 -120c73 0 128 59 128 143z" />
    <glyph glyph-name="Uhungarumlaut" unicode="&#x170;" 
d="M518 838l-127 -136h-58l75 136h110zM354 838l-127 -136h-57l74 136h110zM308 -12c-69 0 -126 22 -171 67c-44 45 -66 111 -66 198v377h87v-371c0 -130 50 -195 150 -195c97 0 150 67 150 195v371h86v-377c0 -87 -22 -153 -67 -198s-101 -67 -169 -67z" />
    <glyph glyph-name="uhungarumlaut" unicode="&#x171;" 
d="M400 514h-54l55 162h106zM224 514h-55l56 162h105zM422 200v237h83v-437h-83v89c-21 -57 -82 -101 -157 -101c-109 0 -162 69 -162 177v272h83v-260c0 -76 37 -120 108 -120c73 0 128 59 128 143z" />
    <glyph glyph-name="Uogonek" unicode="&#x172;" 
d="M351 -179c-47 0 -80 25 -80 68c0 30 20 64 61 101c-5 -1 -13 -2 -24 -2c-69 0 -126 22 -171 67c-44 45 -66 111 -66 198v377h87v-371c0 -130 50 -195 150 -195c97 0 150 67 150 195v371h86v-377c0 -121 -43 -201 -128 -242c-60 -55 -78 -77 -78 -105c0 -21 12 -31 36 -31
c16 0 35 7 56 20l6 -44c-23 -20 -51 -30 -85 -30z" />
    <glyph glyph-name="uogonek" unicode="&#x173;" 
d="M495 -105l6 -44c-23 -20 -51 -30 -85 -30c-47 0 -80 25 -80 68s27 72 86 121v79c-21 -57 -82 -101 -157 -101c-109 0 -162 69 -162 177v272h83v-260c0 -76 37 -120 108 -120c73 0 128 59 128 143v237h83v-437h-36c-51 -47 -66 -67 -66 -94c0 -17 13 -31 36 -31
c16 0 35 7 56 20z" />
    <glyph glyph-name="Wcircumflex" unicode="&#x174;" 
d="M153 702l102 135h103l103 -135h-66l-88 78l-88 -78h-66zM269 531h77l94 -419h6l58 518h81l-82 -630h-103l-90 419h-6l-92 -419h-103l-81 630h86l58 -516h5z" />
    <glyph glyph-name="wcircumflex" unicode="&#x175;" 
d="M157 506l102 165h96l102 -165h-61l-89 107l-89 -107h-61zM270 437h77l80 -339h4l76 339h77l-108 -437h-81l-86 345h-4l-86 -345h-80l-109 437h81l77 -339h4z" />
    <glyph glyph-name="Ycircumflex" unicode="&#x176;" 
d="M153 702l102 135h103l103 -135h-66l-88 78l-88 -78h-66zM132 630l179 -285l177 285h93l-232 -367v-263h-84v263l-232 367h99z" />
    <glyph glyph-name="ycircumflex" unicode="&#x177;" 
d="M151 506l102 165h96l102 -165h-61l-89 107l-89 -107h-61zM262 -39l17 40l-208 436h92l155 -340h4l139 340h81l-196 -466c-41 -96 -89 -151 -168 -151c-68 0 -112 42 -120 102l68 37c0 -48 18 -72 55 -72c33 0 60 25 81 74z" />
    <glyph glyph-name="Ydieresis" unicode="&#x178;" 
d="M261 705h-99v106h99v-106zM451 705h-99v106h99v-106zM132 630l179 -285l177 285h93l-232 -367v-263h-84v263l-232 367h99z" />
    <glyph glyph-name="Zacute" unicode="&#x179;" 
d="M452 843l-137 -141h-63l77 141h123zM521 562l-345 -486h355v-76h-461v65l345 489h-341v76h447v-68z" />
    <glyph glyph-name="zacute" unicode="&#x17a;" 
d="M336 514h-56l59 162h112zM106 370v67h400v-60l-306 -310h322v-67h-424v60l302 310h-294z" />
    <glyph glyph-name="Zdotaccent" unicode="&#x17b;" 
d="M360 705h-113v108h113v-108zM521 562l-345 -486h355v-76h-461v65l345 489h-341v76h447v-68z" />
    <glyph glyph-name="zdotaccent" unicode="&#x17c;" 
d="M372 541h-113v107h113v-107zM106 370v67h400v-60l-306 -310h322v-67h-424v60l302 310h-294z" />
    <glyph glyph-name="Zcaron" unicode="&#x17d;" 
d="M354 702h-103l-102 135h66l88 -78l88 78h66zM521 562l-345 -486h355v-76h-461v65l345 489h-341v76h447v-68z" />
    <glyph glyph-name="zcaron" unicode="&#x17e;" 
d="M363 505h-96l-102 165h61l89 -107l89 107h61zM106 370v67h400v-60l-306 -310h322v-67h-424v60l302 310h-294z" />
    <glyph glyph-name="uni0192" unicode="&#x192;" 
d="M149 -103c-7 0 -21 1 -41 4v63c10 -2 19 -3 27 -3c47 0 69 30 82 91l55 263h-79v61h92l26 126c16 83 70 138 147 138c12 0 29 -2 50 -7v-61c-16 3 -27 4 -34 4c-44 0 -72 -30 -85 -90l-23 -110h101v-61h-114l-58 -279c-19 -93 -67 -139 -146 -139z" />
    <glyph glyph-name="AEacute" unicode="&#x1fc;" 
d="M529 843l-137 -141h-63l77 141h123zM296 254v315l-116 -315h116zM595 0h-299v184h-141l-68 -184h-82l236 630h348v-74h-213v-192h155v-75h-155v-215h219v-74z" />
    <glyph glyph-name="aeacute" unicode="&#x1fd;" 
d="M327 514h-56l59 162h112zM432 -12c-67 0 -122 39 -151 104c-25 -57 -73 -101 -140 -101c-68 0 -120 49 -120 125c0 71 48 106 137 133l98 31v41c0 33 -18 62 -62 62c-47 0 -77 -27 -92 -82l-66 27c25 72 83 121 159 121c55 0 92 -24 110 -72c32 48 73 72 124 72
c52 0 92 -21 121 -62s43 -90 43 -149v-30h-269c0 -93 46 -155 110 -155c44 0 76 30 95 90l61 -36c-27 -76 -83 -119 -158 -119zM326 262h193c-3 71 -30 122 -90 122c-57 0 -95 -53 -103 -122zM256 176v51l-79 -27c-56 -17 -81 -35 -81 -80c0 -39 24 -65 63 -65
c26 0 49 12 68 36c19 25 29 53 29 85z" />
    <glyph glyph-name="Oslashacute" unicode="&#x1fe;" 
d="M456 843l-137 -141h-63l77 141h123zM134 315c0 -64 11 -117 32 -158l257 357c-31 37 -70 55 -116 55c-53 0 -95 -23 -126 -69s-47 -108 -47 -185zM307 61c53 0 95 23 126 69s47 108 47 185c0 53 -8 101 -24 142l-254 -352c29 -29 64 -44 105 -44zM307 -12
c-57 0 -108 18 -151 54l-49 -68l-47 36l54 75c-46 61 -69 137 -69 230c0 97 24 175 73 236s112 91 189 91c63 0 117 -21 162 -63l46 63l48 -36l-54 -74c40 -59 60 -131 60 -217c0 -97 -25 -175 -74 -236s-111 -91 -188 -91z" />
    <glyph glyph-name="oslashacute" unicode="&#x1ff;" 
d="M325 514h-56l59 162h112zM160 218c0 -37 8 -70 24 -98l212 235c-25 19 -54 29 -89 29c-89 0 -147 -66 -147 -166zM307 53c89 0 147 65 147 165c0 39 -8 73 -25 101l-212 -236c25 -20 55 -30 90 -30zM307 -12c-51 0 -97 14 -138 42l-58 -65l-38 31l60 66
c-39 43 -58 95 -58 156c0 67 22 123 66 166c45 43 100 65 166 65c51 0 96 -14 136 -41l53 59l38 -31l-54 -60c40 -42 60 -95 60 -158c0 -67 -22 -122 -67 -165s-100 -65 -166 -65z" />
    <glyph glyph-name="uni0218" unicode="&#x218;" 
d="M52 132l53 66c37 -88 120 -138 209 -138s149 38 149 109c0 53 -34 79 -106 96l-125 30c-101 23 -151 78 -151 165c0 53 19 97 58 131s90 51 152 51c108 0 191 -49 232 -124l-56 -61c-31 68 -95 113 -176 113c-79 0 -128 -39 -128 -106c0 -55 35 -77 107 -94l111 -26
c103 -24 163 -73 163 -173c0 -56 -22 -101 -65 -134s-98 -49 -165 -49c-58 0 -111 13 -159 38c-48 26 -82 61 -103 106zM299 -133h-49v80h113v-75c0 -76 -51 -113 -127 -113v44c42 0 63 21 63 64z" />
    <glyph glyph-name="uni0219" unicode="&#x219;" 
d="M84 88l51 55c31 -57 101 -91 174 -91c77 0 115 21 115 63c0 32 -24 48 -73 59l-107 23c-88 19 -132 60 -132 123c0 38 17 69 51 93s77 36 128 36c93 0 158 -30 197 -90l-56 -46c-25 44 -78 71 -141 71c-57 0 -100 -23 -100 -58c0 -31 22 -48 71 -59l122 -27
c80 -17 120 -56 120 -119c0 -40 -18 -72 -55 -97c-36 -24 -82 -36 -139 -36c-97 0 -187 39 -226 100zM302 -133h-49v80h113v-75c0 -76 -51 -113 -127 -113v44c42 0 63 21 63 64z" />
    <glyph glyph-name="uni021A" unicode="&#x21a;" 
d="M349 554v-554h-87v554h-223v76h536v-76h-226zM303 -133h-49v80h113v-75c0 -76 -51 -113 -127 -113v44c42 0 63 21 63 64z" />
    <glyph glyph-name="uni021B" unicode="&#x21b;" 
d="M38 352v62h142v144l81 25v-169h245v-62h-245v-169c0 -79 53 -123 120 -123c65 0 112 36 143 108l44 -63c-13 -32 -38 -60 -73 -83s-75 -34 -118 -34c-57 0 -105 16 -142 49s-55 79 -55 139v176h-142zM362 -133h-49v80h113v-75c0 -76 -51 -113 -127 -113v44
c42 0 63 21 63 64z" />
    <glyph glyph-name="uni0237" unicode="&#x237;" 
d="M248 -180c-88 0 -163 48 -188 115l49 66c32 -72 72 -108 137 -108c67 0 119 44 119 127v352h-215v65h298v-425c0 -59 -19 -106 -57 -140c-38 -35 -86 -52 -143 -52z" />
    <glyph glyph-name="uni02BB" unicode="&#x2bb;" 
d="M313 594h50v-81h-113v75c0 76 51 114 127 114v-45c-43 0 -64 -21 -64 -63z" />
    <glyph glyph-name="circumflex" unicode="&#x2c6;" 
d="M157 506l102 165h96l102 -165h-61l-89 107l-89 -107h-61z" />
    <glyph glyph-name="caron" unicode="&#x2c7;" 
d="M355 505h-96l-102 165h61l89 -107l89 107h61z" />
    <glyph glyph-name="breve" unicode="&#x2d8;" 
d="M307 503c-89 0 -143 69 -143 158h62c0 -55 26 -95 81 -95s80 40 80 95h62c0 -45 -13 -82 -39 -113c-25 -30 -60 -45 -103 -45z" />
    <glyph glyph-name="dotaccent" unicode="&#x2d9;" 
d="M363 541h-113v107h113v-107z" />
    <glyph glyph-name="ring" unicode="&#x2da;" 
d="M207 605c0 55 41 95 100 95s99 -40 99 -95c0 -56 -40 -96 -99 -96c-60 0 -100 40 -100 96zM356 605c0 33 -16 49 -49 49c-48 5 -64 -56 -37 -85c9 -9 21 -14 37 -14c32 0 49 19 49 50z" />
    <glyph glyph-name="ogonek" unicode="&#x2db;" 
d="M316 12h58c-61 -56 -79 -78 -79 -106c0 -17 13 -31 36 -31c16 0 35 7 56 20l6 -44c-23 -20 -51 -30 -85 -30c-47 0 -80 25 -80 68c0 15 4 31 13 46c19 29 34 42 75 77z" />
    <glyph glyph-name="tilde" unicode="&#x2dc;" 
d="M210 522h-61c0 77 35 136 92 136c19 0 42 -11 69 -34s46 -34 58 -34c21 0 33 22 36 66h62c0 -77 -36 -136 -93 -136c-19 0 -42 11 -69 34c-26 23 -45 35 -58 35c-21 0 -33 -22 -36 -67z" />
    <glyph glyph-name="hungarumlaut" unicode="&#x2dd;" 
d="M369 514h-54l55 162h106zM193 514h-55l56 162h105z" />
    <glyph glyph-name="Wgrave" unicode="&#x1e80;" 
d="M367 702h-64l-136 141h122zM269 531h77l94 -419h6l58 518h81l-82 -630h-103l-90 419h-6l-92 -419h-103l-81 630h86l58 -516h5z" />
    <glyph glyph-name="wgrave" unicode="&#x1e81;" 
d="M293 676l58 -162h-56l-115 162h113zM270 437h77l80 -339h4l76 339h77l-108 -437h-81l-86 345h-4l-86 -345h-80l-109 437h81l77 -339h4z" />
    <glyph glyph-name="Wacute" unicode="&#x1e82;" 
d="M455 843l-137 -141h-63l77 141h123zM269 531h77l94 -419h6l58 518h81l-82 -630h-103l-90 419h-6l-92 -419h-103l-81 630h86l58 -516h5z" />
    <glyph glyph-name="wacute" unicode="&#x1e83;" 
d="M327 514h-56l59 162h112zM270 437h77l80 -339h4l76 339h77l-108 -437h-81l-86 345h-4l-86 -345h-80l-109 437h81l77 -339h4z" />
    <glyph glyph-name="Wdieresis" unicode="&#x1e84;" 
d="M261 705h-99v106h99v-106zM451 705h-99v106h99v-106zM269 531h77l94 -419h6l58 518h81l-82 -630h-103l-90 419h-6l-92 -419h-103l-81 630h86l58 -516h5z" />
    <glyph glyph-name="wdieresis" unicode="&#x1e85;" 
d="M261 533h-99v105h99v-105zM451 533h-99v105h99v-105zM270 437h77l80 -339h4l76 339h77l-108 -437h-81l-86 345h-4l-86 -345h-80l-109 437h81l77 -339h4z" />
    <glyph glyph-name="Ygrave" unicode="&#x1ef2;" 
d="M368 702h-64l-136 141h122zM132 630l179 -285l177 285h93l-232 -367v-263h-84v263l-232 367h99z" />
    <glyph glyph-name="ygrave" unicode="&#x1ef3;" 
d="M287 676l58 -162h-56l-115 162h113zM262 -39l17 40l-208 436h92l155 -340h4l139 340h81l-196 -466c-41 -96 -89 -151 -168 -151c-68 0 -112 42 -120 102l68 37c0 -48 18 -72 55 -72c33 0 60 25 81 74z" />
    <glyph glyph-name="endash" unicode="&#x2013;" 
d="M500 220h-386v68h386v-68z" />
    <glyph glyph-name="emdash" unicode="&#x2014;" 
d="M604 220h-594v68h594v-68z" />
    <glyph glyph-name="quoteleft" unicode="&#x2018;" 
d="M303 491h58v-114h-120v123c0 91 57 142 158 142v-59c-64 0 -96 -28 -96 -83v-9z" />
    <glyph glyph-name="quoteright" unicode="&#x2019;" 
d="M311 516h-58v114h120v-123c0 -91 -57 -142 -158 -142v59c64 0 96 28 96 83v9z" />
    <glyph glyph-name="quotesinglbase" unicode="&#x201a;" 
d="M311 21h-58v114h120v-123c0 -91 -57 -142 -158 -142v59c64 0 96 28 96 83v9z" />
    <glyph glyph-name="quotedblleft" unicode="&#x201c;" 
d="M190 491h58v-114h-120v123c0 91 57 142 158 142v-59c-64 0 -96 -28 -96 -83v-9zM415 491h58v-114h-120v123c0 91 57 142 158 142v-59c-64 0 -96 -28 -96 -83v-9z" />
    <glyph glyph-name="quotedblright" unicode="&#x201d;" 
d="M199 516h-58v114h120v-123c0 -91 -57 -142 -158 -142v59c64 0 96 28 96 83v9zM424 516h-58v114h120v-123c0 -91 -57 -142 -158 -142v59c64 0 96 28 96 83v9z" />
    <glyph glyph-name="quotedblbase" unicode="&#x201e;" 
d="M198 21h-58v114h120v-123c0 -91 -57 -142 -158 -142v59c64 0 96 28 96 83v9zM422 21h-58v114h120v-123c0 -91 -57 -142 -158 -142v59c64 0 96 28 96 83v9z" />
    <glyph glyph-name="dagger" unicode="&#x2020;" 
d="M441 541v-58h-104v-228h-60v228h-105v58h105v98h60v-98h104z" />
    <glyph glyph-name="daggerdbl" unicode="&#x2021;" 
d="M337 255h-59v94h-105v56h105v85h-105v55h105v94h59v-94h105v-55h-105v-85h105v-56h-105v-94z" />
    <glyph glyph-name="bullet" unicode="&#x2022;" 
d="M428 256c0 -71 -53 -121 -122 -121c-68 0 -121 50 -121 121c0 69 53 121 121 121s122 -52 122 -121z" />
    <glyph glyph-name="ellipsis" unicode="&#x2026;" 
d="M562 0h-113v110h113v-110zM363 0h-112v110h112v-110zM165 0h-113v110h113v-110z" />
    <glyph glyph-name="perthousand" unicode="&#x2030;" 
d="M1 512c0 36 12 67 35 92c24 26 53 39 86 39s62 -13 85 -39c24 -25 36 -56 36 -92c0 -37 -12 -68 -36 -94c-23 -25 -52 -38 -85 -38s-62 13 -86 38c-23 26 -35 57 -35 94zM189 512c0 49 -27 83 -67 83s-67 -34 -67 -83c0 -51 27 -84 67 -84s67 33 67 84zM19 235l-13 35
l482 188l13 -35zM578 27c-23 -25 -52 -38 -85 -38s-62 13 -86 38c-24 26 -36 57 -36 93s12 67 36 92c24 26 53 39 86 39s62 -13 85 -39c24 -25 36 -56 36 -92s-12 -67 -36 -93zM210 -11c-33 0 -61 13 -85 38c-24 26 -36 57 -36 93s12 67 36 92c24 26 52 39 85 39
s62 -13 86 -39c24 -25 36 -56 36 -92s-12 -67 -36 -93c-24 -25 -53 -38 -86 -38zM444 60c25 -31 73 -31 97 0c13 15 19 35 19 60s-6 45 -19 60c-24 31 -72 31 -97 0c-12 -15 -18 -35 -18 -60s6 -45 18 -60zM161 60c25 -31 73 -31 97 0c13 15 19 35 19 60s-6 45 -19 60
c-24 31 -72 31 -97 0c-12 -15 -18 -35 -18 -60s6 -45 18 -60z" />
    <glyph glyph-name="guilsinglleft" unicode="&#x2039;" 
d="M398 21l-184 157v81l184 157v-92l-117 -106l117 -105v-92z" />
    <glyph glyph-name="guilsinglright" unicode="&#x203a;" 
d="M216 416l184 -157v-81l-184 -157v92l117 105l-117 106v92z" />
    <glyph glyph-name="fraction" unicode="&#x2044;" 
d="M77 0h-77l537 630h77z" />
    <glyph glyph-name="uni2070" unicode="&#x2070;" 
d="M308 295c-87 0 -140 63 -140 171c0 109 53 172 140 172c85 0 139 -64 139 -172s-54 -171 -139 -171zM308 587c-49 0 -74 -40 -74 -121s25 -121 74 -121s73 40 73 121s-24 121 -73 121z" />
    <glyph glyph-name="uni2074" unicode="&#x2074;" 
d="M318 631h76v-197h53v-52h-53v-81h-62v81h-164v58zM332 434v142l-110 -142h110z" />
    <glyph glyph-name="uni2075" unicode="&#x2075;" 
d="M178 400l63 9c1 -39 28 -65 71 -65c39 0 65 26 65 66c0 37 -25 65 -65 65c-28 0 -48 -10 -61 -30l-58 9c11 66 18 125 20 177h205c5 -38 -11 -57 -47 -57c-26 0 -63 3 -111 9c-2 -43 -6 -74 -11 -94c17 22 43 33 76 33c68 0 111 -48 111 -111c0 -69 -52 -116 -125 -116
c-76 0 -126 41 -133 105z" />
    <glyph glyph-name="uni2076" unicode="&#x2076;" 
d="M436 553l-58 -12c-7 31 -26 47 -59 47c-57 0 -86 -53 -83 -132c14 40 45 60 93 60c65 0 110 -45 110 -109c0 -68 -49 -112 -124 -112c-89 0 -137 63 -137 167c0 105 51 176 142 176c61 0 104 -32 116 -85zM248 407c0 -37 26 -63 66 -63s66 26 66 63c0 39 -26 64 -67 64
c-40 0 -65 -25 -65 -64z" />
    <glyph glyph-name="uni2077" unicode="&#x2077;" 
d="M366 575h-189v56h258v-45c-80 -80 -107 -168 -108 -285h-68c1 108 36 199 107 274z" />
    <glyph glyph-name="uni2078" unicode="&#x2078;" 
d="M176 390c0 40 32 72 72 80c-40 14 -60 39 -60 76c0 56 49 92 120 92s120 -36 120 -92c0 -37 -20 -62 -60 -76c39 -8 71 -40 71 -80c0 -59 -48 -95 -131 -95s-132 36 -132 95zM308 491c35 0 58 18 58 49c0 33 -23 52 -58 52c-36 0 -58 -19 -58 -52c0 -31 22 -49 58 -49z
M308 342c44 0 66 17 66 52s-22 52 -66 52c-45 0 -67 -17 -67 -52s22 -52 67 -52z" />
    <glyph glyph-name="uni2079" unicode="&#x2079;" 
d="M368 525c0 37 -26 63 -66 63s-65 -26 -65 -63c0 -39 25 -63 66 -63c40 0 65 24 65 63zM181 380l58 12c7 -32 26 -48 59 -48c57 0 85 55 82 132c-12 -36 -44 -60 -93 -60c-65 0 -109 45 -109 109c0 68 48 113 123 113c89 0 138 -63 138 -167c0 -105 -51 -176 -142 -176
c-61 0 -104 30 -116 85z" />
    <glyph glyph-name="uni2080" unicode="&#x2080;" 
d="M308 -106c-87 0 -140 63 -140 171s53 172 140 172c85 0 139 -64 139 -172s-54 -171 -139 -171zM308 186c-49 0 -74 -40 -74 -121s25 -121 74 -121s73 40 73 121s-24 121 -73 121z" />
    <glyph glyph-name="uni2081" unicode="&#x2081;" 
d="M442 -48v-52h-252v52h99v184h-89v46h27c53 0 68 11 79 50h46v-280h90z" />
    <glyph glyph-name="uni2082" unicode="&#x2082;" 
d="M330 -4l-53 -43h153v-53h-247v41l93 77c59 49 81 75 81 112c0 35 -18 53 -54 53c-39 0 -58 -21 -58 -64c0 -11 2 -20 5 -29l-62 2c-3 12 -5 22 -5 31c0 69 49 114 121 114c76 0 119 -43 119 -103c0 -19 -5 -37 -15 -55c-20 -35 -37 -48 -78 -83z" />
    <glyph glyph-name="uni2083" unicode="&#x2083;" 
d="M242 119l-59 14c7 61 54 104 125 104c75 0 118 -38 118 -95c0 -40 -33 -70 -70 -75c44 -4 77 -37 77 -78c0 -57 -50 -95 -125 -95c-76 0 -126 37 -133 100l60 15c3 -41 31 -65 74 -65c35 0 59 18 59 49s-26 49 -63 49c-10 0 -20 -1 -29 -3v51c9 -1 19 -2 30 -2
c33 0 59 16 59 48c0 31 -22 50 -58 50c-39 0 -62 -26 -65 -67z" />
    <glyph glyph-name="uni2084" unicode="&#x2084;" 
d="M318 230h76v-197h53v-52h-53v-81h-62v81h-164v58zM332 33v142l-110 -142h110z" />
    <glyph glyph-name="uni2085" unicode="&#x2085;" 
d="M178 -1l63 9c1 -39 28 -65 71 -65c39 0 65 26 65 66c0 37 -25 65 -65 65c-28 0 -48 -10 -61 -30l-58 9c11 66 18 125 20 177h205c5 -38 -11 -57 -47 -57c-26 0 -63 3 -111 9c-2 -43 -6 -74 -11 -94c17 22 43 33 76 33c68 0 111 -48 111 -111c0 -69 -52 -116 -125 -116
c-76 0 -126 41 -133 105z" />
    <glyph glyph-name="uni2086" unicode="&#x2086;" 
d="M436 152l-58 -12c-7 31 -26 47 -59 47c-57 0 -86 -53 -83 -132c14 40 45 60 93 60c65 0 110 -45 110 -109c0 -68 -49 -112 -124 -112c-89 0 -137 63 -137 167c0 105 51 176 142 176c61 0 104 -32 116 -85zM248 6c0 -37 26 -63 66 -63s66 26 66 63c0 39 -26 64 -67 64
c-40 0 -65 -25 -65 -64z" />
    <glyph glyph-name="uni2087" unicode="&#x2087;" 
d="M366 174h-189v56h258v-45c-80 -80 -107 -168 -108 -285h-68c1 108 36 199 107 274z" />
    <glyph glyph-name="uni2088" unicode="&#x2088;" 
d="M176 -11c0 40 32 72 72 80c-40 14 -60 39 -60 76c0 56 49 92 120 92s120 -36 120 -92c0 -37 -20 -62 -60 -76c39 -8 71 -40 71 -80c0 -59 -48 -95 -131 -95s-132 36 -132 95zM308 90c35 0 58 18 58 49c0 33 -23 52 -58 52c-36 0 -58 -19 -58 -52c0 -31 22 -49 58 -49z
M308 -59c44 0 66 17 66 52s-22 52 -66 52c-45 0 -67 -17 -67 -52s22 -52 67 -52z" />
    <glyph glyph-name="uni2089" unicode="&#x2089;" 
d="M368 124c0 37 -26 63 -66 63s-65 -26 -65 -63c0 -39 25 -63 66 -63c40 0 65 24 65 63zM181 -21l58 12c7 -32 26 -48 59 -48c57 0 85 55 82 132c-12 -36 -44 -60 -93 -60c-65 0 -109 45 -109 109c0 68 48 113 123 113c89 0 138 -63 138 -167c0 -105 -51 -176 -142 -176
c-61 0 -104 30 -116 85z" />
    <glyph glyph-name="Euro" unicode="&#x20ac;" 
d="M509 215l78 -33c-31 -121 -108 -194 -233 -194c-135 0 -229 90 -256 238h-67v52h60c-1 8 -1 20 -1 37c0 16 0 28 1 35h-60v52h66c27 148 121 240 257 240c121 0 198 -62 231 -186l-76 -40c-19 102 -70 153 -155 153c-93 0 -151 -56 -172 -167h197l-10 -52h-193
c-1 -7 -1 -19 -1 -35c0 -17 0 -29 1 -37h183l-10 -52h-166c20 -104 78 -165 171 -165c86 0 138 51 155 154z" />
    <glyph glyph-name="uni2117" unicode="&#x2117;" 
d="M308 642c77 0 143 -31 197 -93s81 -140 81 -234s-27 -172 -81 -234s-120 -93 -197 -93c-78 0 -144 31 -199 93c-54 62 -81 140 -81 234s27 172 81 234c55 62 121 93 199 93zM308 33c65 0 119 27 164 80s68 121 68 202s-23 149 -68 202s-99 80 -164 80s-121 -27 -166 -80
s-67 -121 -67 -202s22 -149 67 -202s101 -80 166 -80zM316 259h-62v-132h-66v374h128c92 0 145 -48 145 -121s-53 -121 -145 -121zM254 446v-132h52c59 0 89 22 89 66s-30 66 -89 66h-52z" />
    <glyph glyph-name="trademark" unicode="&#x2122;" 
d="M167 576v-238h-62v238h-78v54h220v-54h-80zM509 571l-59 -233h-49l-59 233h-2v-233h-58v292h96l50 -215h3l51 215h90v-292h-61v233h-2z" />
    <glyph glyph-name="uni2153" unicode="&#x2153;" 
d="M282 353v-52h-252v52h99v184h-89v46h27c53 0 68 11 79 50h46v-280h90zM624 630l-233 -249l-21 20l168 229h86zM-10 0l233 249l21 -20l-168 -229h-86zM399 219l-59 14c7 61 54 104 125 104c75 0 118 -38 118 -95c0 -40 -33 -70 -70 -75c44 -4 77 -37 77 -78
c0 -57 -50 -95 -125 -95c-76 0 -126 37 -133 100l60 15c3 -41 31 -65 74 -65c35 0 59 18 59 49s-26 49 -63 49c-11 0 -20 -1 -29 -3v51c9 -1 19 -2 30 -2c33 0 59 16 59 48c0 31 -22 50 -58 50c-39 0 -62 -26 -65 -67z" />
    <glyph glyph-name="uni2154" unicode="&#x2154;" 
d="M178 397l-53 -43h153v-53h-247v41l93 77c59 49 81 75 81 112c0 35 -18 53 -54 53c-39 0 -58 -21 -58 -64c0 -11 2 -20 5 -29l-62 2c-3 12 -5 22 -5 31c0 69 49 114 121 114c76 0 119 -43 119 -103c0 -19 -5 -37 -15 -55c-20 -35 -37 -48 -78 -83zM624 630l-233 -249
l-21 20l168 229h86zM-10 0l233 249l21 -20l-168 -229h-86zM399 219l-59 14c7 61 54 104 125 104c75 0 118 -38 118 -95c0 -40 -33 -70 -70 -75c44 -4 77 -37 77 -78c0 -57 -50 -95 -125 -95c-76 0 -126 37 -133 100l60 15c3 -41 31 -65 74 -65c35 0 59 18 59 49
s-26 49 -63 49c-11 0 -20 -1 -29 -3v51c9 -1 19 -2 30 -2c33 0 59 16 59 48c0 31 -22 50 -58 50c-39 0 -62 -26 -65 -67z" />
    <glyph glyph-name="uni215B" unicode="&#x215b;" 
d="M282 353v-52h-252v52h99v184h-89v46h27c53 0 68 11 79 50h46v-280h90zM624 630l-233 -249l-21 20l168 229h86zM328 89c0 40 32 72 72 80c-40 14 -60 39 -60 76c0 56 49 92 120 92s120 -36 120 -92c0 -37 -20 -62 -60 -76c39 -8 71 -40 71 -80c0 -59 -48 -95 -131 -95
s-132 36 -132 95zM460 190c35 0 58 18 58 49c0 33 -23 52 -58 52c-36 0 -58 -19 -58 -52c0 -31 22 -49 58 -49zM-10 0l233 249l21 -20l-168 -229h-86zM460 41c44 0 66 17 66 52s-22 52 -66 52c-45 0 -67 -17 -67 -52s22 -52 67 -52z" />
    <glyph glyph-name="uni215C" unicode="&#x215c;" 
d="M624 630l-233 -249l-21 20l168 229h86zM102 520l-59 14c7 61 54 104 125 104c75 0 118 -38 118 -95c0 -40 -33 -70 -70 -75c44 -4 77 -37 77 -78c0 -57 -50 -95 -125 -95c-76 0 -126 37 -133 100l60 15c3 -41 31 -65 74 -65c35 0 59 18 59 49s-26 49 -63 49
c-10 0 -20 -1 -29 -3v51c9 -1 19 -2 30 -2c33 0 59 16 59 48c0 31 -22 50 -58 50c-39 0 -62 -26 -65 -67zM328 89c0 40 32 72 72 80c-40 14 -60 39 -60 76c0 56 49 92 120 92s120 -36 120 -92c0 -37 -20 -62 -60 -76c39 -8 71 -40 71 -80c0 -59 -48 -95 -131 -95
s-132 36 -132 95zM460 190c35 0 58 18 58 49c0 33 -23 52 -58 52c-36 0 -58 -19 -58 -52c0 -31 22 -49 58 -49zM-10 0l233 249l21 -20l-168 -229h-86zM460 41c44 0 66 17 66 52s-22 52 -66 52c-45 0 -67 -17 -67 -52s22 -52 67 -52z" />
    <glyph glyph-name="uni215D" unicode="&#x215d;" 
d="M624 630l-233 -249l-21 20l168 229h86zM28 400l63 9c1 -39 28 -65 71 -65c39 0 65 26 65 66c0 37 -25 65 -65 65c-28 0 -48 -10 -61 -30l-58 9c11 66 18 125 20 177h205c5 -38 -11 -57 -47 -57c-26 0 -63 3 -111 9c-2 -43 -6 -74 -11 -94c17 22 43 33 76 33
c68 0 111 -48 111 -111c0 -69 -52 -116 -125 -116c-76 0 -126 41 -133 105zM328 89c0 40 32 72 72 80c-40 14 -60 39 -60 76c0 56 49 92 120 92s120 -36 120 -92c0 -37 -20 -62 -60 -76c39 -8 71 -40 71 -80c0 -59 -48 -95 -131 -95s-132 36 -132 95zM460 190
c35 0 58 18 58 49c0 33 -23 52 -58 52c-36 0 -58 -19 -58 -52c0 -31 22 -49 58 -49zM-10 0l233 249l21 -20l-168 -229h-86zM460 41c44 0 66 17 66 52s-22 52 -66 52c-45 0 -67 -17 -67 -52s22 -52 67 -52z" />
    <glyph glyph-name="uni215E" unicode="&#x215e;" 
d="M229 575h-189v56h258v-45c-80 -80 -107 -168 -108 -285h-68c1 108 36 199 107 274zM624 630l-233 -249l-21 20l168 229h86zM328 89c0 40 32 72 72 80c-40 14 -60 39 -60 76c0 56 49 92 120 92s120 -36 120 -92c0 -37 -20 -62 -60 -76c39 -8 71 -40 71 -80
c0 -59 -48 -95 -131 -95s-132 36 -132 95zM460 190c35 0 58 18 58 49c0 33 -23 52 -58 52c-36 0 -58 -19 -58 -52c0 -31 22 -49 58 -49zM-10 0l233 249l21 -20l-168 -229h-86zM460 41c44 0 66 17 66 52s-22 52 -66 52c-45 0 -67 -17 -67 -52s22 -52 67 -52z" />
    <glyph glyph-name="minus" unicode="&#x2212;" 
d="M562 277h-510v70h510v-70z" />
    <glyph glyph-name="approxequal" unicode="&#x2248;" 
d="M51 329v69c48 31 94 46 138 46c29 0 68 -7 116 -22c49 -15 88 -22 117 -22c47 0 93 15 140 45v-69c-46 -31 -93 -46 -140 -46c-29 0 -68 7 -117 22c-48 15 -87 22 -116 22c-45 0 -91 -15 -138 -45zM51 179v69c47 31 93 46 138 46c29 0 68 -8 116 -23
c49 -15 88 -22 117 -22c46 0 93 15 140 46v-69c-47 -31 -94 -46 -140 -46c-29 0 -68 7 -117 22c-48 15 -87 23 -116 23c-44 0 -90 -15 -138 -46z" />
    <glyph glyph-name="notequal" unicode="&#x2260;" 
d="M562 264v-67h-306l-92 -122h-72l92 122h-133v67h184l70 93h-254v67h305l94 125h71l-94 -125h135v-67h-186l-70 -93h256z" />
    <glyph glyph-name="lessequal" unicode="&#x2264;" 
d="M502 159l-391 178v82l391 177v-76l-316 -142l316 -143v-76zM502 39h-391v70h391v-70z" />
    <glyph glyph-name="greaterequal" unicode="&#x2265;" 
d="M111 596l391 -177v-82l-391 -178v76l316 143l-316 142v76zM111 109h391v-70h-391v70z" />
    <glyph glyph-name="uni00200326" 
d="M300 -133h-49v80h113v-75c0 -76 -51 -113 -127 -113v44c42 0 63 21 63 64z" />
    <glyph glyph-name="uni00200323" 
d="M363 -178h-113v108h113v-108z" />
    <glyph glyph-name="i.dot" 
d="M379 541h-113v107h113v-107zM557 64v-64h-455v64h186v308h-166v65h248v-373h187z" />
    <glyph glyph-name="hyphen.cap" 
d="M430 271h-246v79h246v-79z" />
    <glyph glyph-name="endash.cap" 
d="M500 275h-386v69h386v-69z" />
    <glyph glyph-name="emdash.cap" 
d="M604 275h-594v69h594v-69z" />
    <glyph glyph-name="parenleft.cap" 
d="M381 680h102c-147 -103 -220 -227 -220 -372s73 -269 220 -372h-102c-128 99 -200 229 -200 372s72 273 200 372z" />
    <glyph glyph-name="parenright.cap" 
d="M233 -64h-102c147 103 220 227 220 372s-73 269 -220 372h102c128 -99 200 -229 200 -372s-72 -273 -200 -372z" />
    <glyph glyph-name="bracketleft.cap" 
d="M478 617h-201v-618h201v-63h-279v744h279v-63z" />
    <glyph glyph-name="bracketright.cap" 
d="M337 -1v618h-201v63h279v-744h-279v63h201z" />
    <glyph glyph-name="braceleft.cap" 
d="M162 276h-55v64h55c40 0 47 16 47 73v166c0 67 30 101 91 101h178v-63h-159c-21 0 -31 -12 -31 -37v-170c0 -60 -18 -93 -70 -102c52 -9 70 -43 70 -103v-169c0 -25 10 -37 31 -37h159v-63h-178c-61 0 -91 34 -91 101v166c0 57 -7 73 -47 73z" />
    <glyph glyph-name="braceright.cap" 
d="M507 340v-64h-55c-40 0 -47 -16 -47 -73v-166c0 -67 -30 -101 -91 -101h-178v63h159c21 0 31 12 31 37v169c0 60 18 94 70 103c-52 9 -70 42 -70 102v170c0 25 -10 37 -31 37h-159v63h178c61 0 91 -34 91 -101v-166c0 -57 7 -73 47 -73h55z" />
    <glyph glyph-name="guilsinglleft.cap" 
d="M398 101l-184 157v81l184 157v-92l-117 -106l117 -105v-92z" />
    <glyph glyph-name="guilsinglright.cap" 
d="M216 496l184 -157v-81l-184 -157v92l117 105l-117 106v92z" />
    <glyph glyph-name="guillemotleft.cap" 
d="M286 101l-185 157v81l185 157v-92l-118 -106l118 -105v-92zM511 101l-184 157v81l184 157v-92l-118 -106l118 -105v-92z" />
    <glyph glyph-name="guillemotright.cap" 
d="M103 496l184 -157v-81l-184 -157v92l118 105l-118 106v92zM328 496l185 -157v-81l-185 -157v92l118 105l-118 106v92z" />
    <glyph glyph-name="slash.cap" 
d="M131 -73h-86l438 772h86z" />
    <glyph glyph-name="backslash.cap" 
d="M131 699l438 -772h-86l-438 772h86z" />
    <glyph glyph-name="bar.cap" 
d="M347 -73h-80v772h80v-772z" />
    <glyph glyph-name="at.cap" 
d="M451 190c53 0 89 64 89 183c0 71 -18 127 -55 170c-36 43 -87 65 -152 65c-79 0 -141 -30 -188 -89s-70 -135 -70 -229c0 -83 22 -149 65 -198c44 -48 100 -72 168 -72c62 0 119 15 170 44l18 -40c-53 -37 -116 -56 -189 -56c-83 0 -152 28 -207 85s-82 136 -82 237
c0 108 29 197 86 266c58 69 134 104 229 104c81 0 146 -27 193 -80s71 -122 71 -207c0 -152 -67 -236 -154 -236c-44 0 -74 26 -79 66c-20 -41 -58 -66 -101 -66c-68 0 -110 53 -110 137c0 54 14 103 43 148s67 67 114 67c43 0 76 -26 87 -63l13 55h58l-50 -233
c-7 -39 4 -58 33 -58zM369 302l5 23c13 64 -10 108 -54 108c-31 0 -55 -17 -73 -50s-27 -69 -27 -109c0 -52 19 -78 56 -78c41 0 81 38 93 106z" />
    <glyph glyph-name="exclamdown.cap" 
d="M369 506h-124v124h124v-124zM354 176v-176h-94v176l27 246h40z" />
    <glyph glyph-name="questiondown.cap" 
d="M253 630h123v-121h-123v121zM274 426h78c-1 -49 -21 -79 -73 -116l-19 -14l-19 -14c-5 -4 -28 -21 -33 -28s-19 -23 -23 -34s-8 -27 -8 -43c0 -69 46 -119 126 -119c87 0 135 55 135 148c0 16 -1 30 -4 41l89 -5c2 -15 3 -29 3 -42c0 -64 -21 -115 -62 -154
s-95 -58 -162 -58c-69 0 -123 18 -160 53c-37 36 -55 81 -55 134c0 27 7 53 21 76s29 41 44 54c16 13 39 30 70 51c36 25 49 41 52 70z" />
    <glyph glyph-name="periodcentered.cap" 
d="M371 243h-128v128h128v-128z" />
    <glyph glyph-name="bullet.cap" 
d="M428 312c0 -71 -53 -121 -122 -121c-68 0 -121 50 -121 121c0 69 53 121 121 121s122 -52 122 -121z" />
    <glyph glyph-name="zero.dnom" 
d="M308 -6c-87 0 -140 63 -140 171s53 172 140 172c85 0 139 -64 139 -172s-54 -171 -139 -171zM308 286c-49 0 -74 -40 -74 -121s25 -121 74 -121s73 40 73 121s-24 121 -73 121z" />
    <glyph glyph-name="one.dnom" 
d="M442 52v-52h-252v52h99v184h-89v46h27c53 0 68 11 79 50h46v-280h90z" />
    <glyph glyph-name="two.dnom" 
d="M330 96l-53 -43h153v-53h-247v41l93 77c59 49 81 75 81 112c0 35 -18 53 -54 53c-39 0 -58 -21 -58 -64c0 -11 2 -20 5 -29l-62 2c-3 12 -5 22 -5 31c0 69 49 114 121 114c76 0 119 -43 119 -103c0 -19 -5 -37 -15 -55c-20 -35 -37 -48 -78 -83z" />
    <glyph glyph-name="three.dnom" 
d="M242 219l-59 14c7 61 54 104 125 104c75 0 118 -38 118 -95c0 -40 -33 -70 -70 -75c44 -4 77 -37 77 -78c0 -57 -50 -95 -125 -95c-76 0 -126 37 -133 100l60 15c3 -41 31 -65 74 -65c35 0 59 18 59 49s-26 49 -63 49c-10 0 -20 -1 -29 -3v51c9 -1 19 -2 30 -2
c33 0 59 16 59 48c0 31 -22 50 -58 50c-39 0 -62 -26 -65 -67z" />
    <glyph glyph-name="four.dnom" 
d="M318 330h76v-197h53v-52h-53v-81h-62v81h-164v58zM332 133v142l-110 -142h110z" />
    <glyph glyph-name="five.dnom" 
d="M178 99l63 9c1 -39 28 -65 71 -65c39 0 65 26 65 66c0 37 -25 65 -65 65c-28 0 -48 -10 -61 -30l-58 9c11 66 18 125 20 177h205c5 -38 -11 -57 -47 -57c-26 0 -63 3 -111 9c-2 -43 -6 -74 -11 -94c17 22 43 33 76 33c68 0 111 -48 111 -111c0 -69 -52 -116 -125 -116
c-76 0 -126 41 -133 105z" />
    <glyph glyph-name="six.dnom" 
d="M436 252l-58 -12c-7 31 -26 47 -59 47c-57 0 -86 -53 -83 -132c14 40 45 60 93 60c65 0 110 -45 110 -109c0 -68 -49 -112 -124 -112c-89 0 -137 63 -137 167c0 105 51 176 142 176c61 0 104 -32 116 -85zM248 106c0 -37 26 -63 66 -63s66 26 66 63c0 39 -26 64 -67 64
c-40 0 -65 -25 -65 -64z" />
    <glyph glyph-name="seven.dnom" 
d="M366 274h-189v56h258v-45c-80 -80 -107 -168 -108 -285h-68c1 108 36 199 107 274z" />
    <glyph glyph-name="eight.dnom" 
d="M176 89c0 40 32 72 72 80c-40 14 -60 39 -60 76c0 56 49 92 120 92s120 -36 120 -92c0 -37 -20 -62 -60 -76c39 -8 71 -40 71 -80c0 -59 -48 -95 -131 -95s-132 36 -132 95zM308 190c35 0 58 18 58 49c0 33 -23 52 -58 52c-36 0 -58 -19 -58 -52c0 -31 22 -49 58 -49z
M308 41c44 0 66 17 66 52s-22 52 -66 52c-45 0 -67 -17 -67 -52s22 -52 67 -52z" />
    <glyph glyph-name="nine.dnom" 
d="M368 224c0 37 -26 63 -66 63s-65 -26 -65 -63c0 -39 25 -63 66 -63c40 0 65 24 65 63zM181 79l58 12c7 -32 26 -48 59 -48c57 0 85 55 82 132c-12 -36 -44 -60 -93 -60c-65 0 -109 45 -109 109c0 68 48 113 123 113c89 0 138 -63 138 -167c0 -105 -51 -176 -142 -176
c-61 0 -104 30 -116 85z" />
    <glyph glyph-name="a.ord" 
d="M221 466l-62 20c23 51 73 85 144 85c79 0 118 -32 118 -96v-137c0 -20 12 -30 28 -30c12 0 24 4 35 13l4 -46c-53 -39 -127 -12 -133 45c-15 -37 -59 -63 -111 -63c-57 0 -97 34 -97 86c0 51 40 74 113 93l94 21v21c0 26 -18 39 -53 39c-41 0 -71 -22 -80 -51zM354 385
v33l-73 -19c-44 -11 -64 -22 -64 -50c0 -24 18 -41 47 -41c48 0 90 34 90 77z" />
    <glyph glyph-name="b.ord" 
d="M231 324l-16 -61h-52v430h71v-192c17 47 52 70 105 70c87 0 141 -67 141 -158c0 -92 -54 -158 -142 -158c-53 0 -91 26 -107 69zM232 420v-14c0 -57 38 -98 87 -98c55 0 89 42 89 105s-34 104 -89 104c-49 0 -87 -40 -87 -97z" />
    <glyph glyph-name="c.ord" 
d="M398 373l61 -22c-19 -57 -67 -96 -143 -96c-95 0 -160 63 -160 158c0 93 66 158 162 158c70 0 116 -29 137 -87l-60 -26c-12 38 -37 57 -75 57c-55 0 -91 -39 -91 -102c0 -64 36 -103 89 -103c42 0 69 21 80 63z" />
    <glyph glyph-name="d.ord" 
d="M383 406v14c0 57 -38 97 -87 97c-56 0 -89 -41 -89 -104s33 -105 89 -105c49 0 87 41 87 98zM451 263h-70v62c-16 -43 -53 -70 -106 -70c-85 0 -140 66 -140 158c0 45 13 83 38 113s59 45 102 45c53 0 90 -27 106 -70v192h70v-430z" />
    <glyph glyph-name="e.ord" 
d="M401 364l56 -25c-24 -56 -72 -84 -145 -84c-96 0 -162 62 -162 154c0 47 15 85 45 116c31 31 69 46 114 46c95 0 149 -64 149 -148v-20h-238c0 -56 41 -94 94 -94c43 0 72 18 87 55zM222 442h168c-3 43 -32 76 -81 76c-47 0 -79 -33 -87 -76z" />
    <glyph glyph-name="f.ord" 
d="M250 263v239h-80v50h80v14c0 83 57 135 140 135c59 0 98 -21 119 -64l-47 -31c-13 29 -37 43 -71 43c-43 0 -70 -30 -70 -83v-14h132v-50h-133v-239h-70z" />
    <glyph glyph-name="g.ord" 
d="M360 470c0 35 -25 58 -61 58s-62 -23 -62 -58c0 -36 26 -59 62 -59s61 23 61 59zM482 247c0 -35 -18 -61 -54 -79c-35 -17 -78 -26 -129 -26c-95 0 -163 26 -163 81c0 29 27 54 66 59c-31 9 -46 27 -46 54s17 46 50 58c-27 19 -40 45 -40 76c0 61 53 101 132 101
c37 0 68 -8 92 -25c17 32 54 57 98 50l6 -58c-27 5 -61 -2 -78 -18c10 -14 15 -31 15 -50c0 -61 -54 -101 -133 -101c-22 0 -43 3 -63 10c-14 -7 -21 -16 -21 -27c0 -15 12 -23 37 -23h125c65 0 106 -33 106 -82zM201 231c0 -32 33 -48 99 -48c67 0 114 17 114 52
c0 23 -19 34 -56 34h-106c-28 0 -51 -15 -51 -38z" />
    <glyph glyph-name="h.ord" 
d="M235 421v-158h-70v430h70v-189c16 39 58 67 107 67c76 0 113 -49 113 -121v-187h-70v174c0 48 -25 77 -69 77c-47 0 -81 -38 -81 -93z" />
    <glyph glyph-name="i.ord" 
d="M360 626h-82v75h82v-75zM475 317v-54h-314v54h124v191h-111v55h180v-246h121z" />
    <glyph glyph-name="j.ord" 
d="M412 701v-75h-82v75h82zM266 142c-61 0 -112 33 -132 78l40 50c21 -46 50 -69 89 -69c43 0 75 26 75 77v230h-146v55h216v-291c0 -83 -61 -130 -142 -130z" />
    <glyph glyph-name="k.ord" 
d="M285 403l-49 -42v-98h-70v430h70v-266l153 136h82l-136 -118l141 -182h-81z" />
    <glyph glyph-name="l.ord" 
d="M475 315v-52h-314v52h124v325h-111v53h180v-378h121z" />
    <glyph glyph-name="m.ord" 
d="M196 431v-168h-63v300h63v-62c11 47 36 70 75 70c36 0 59 -26 66 -67c11 39 38 67 77 67c43 0 68 -35 68 -87v-221h-63v195c0 38 -12 57 -36 57c-29 0 -44 -35 -44 -84v-168h-63v195c0 38 -12 57 -36 57c-29 0 -44 -28 -44 -84z" />
    <glyph glyph-name="n.ord" 
d="M235 421v-158h-71v300h71v-59c15 39 57 67 106 67c77 0 114 -49 114 -121v-187h-71v174c0 48 -25 77 -69 77c-47 0 -80 -38 -80 -93z" />
    <glyph glyph-name="o.ord" 
d="M472 413c0 -47 -16 -85 -47 -114s-71 -44 -118 -44s-86 15 -117 44s-46 67 -46 114c0 46 15 84 46 113c31 30 70 45 117 45s87 -15 118 -45c31 -29 47 -67 47 -113zM307 309c56 0 91 41 91 104s-35 103 -91 103c-55 0 -90 -40 -90 -103s35 -104 90 -104z" />
    <glyph glyph-name="p.ord" 
d="M231 420v-14c0 -57 39 -98 88 -98c55 0 89 42 89 105s-34 104 -89 104c-51 0 -88 -40 -88 -97zM233 325v-175h-70v413h70v-62c19 47 54 70 106 70c87 0 141 -67 141 -158c0 -92 -54 -158 -141 -158c-52 0 -87 23 -106 70z" />
    <glyph glyph-name="q.ord" 
d="M452 150h-70v175c-19 -47 -54 -70 -106 -70c-87 0 -141 66 -141 158c0 91 54 158 141 158c52 0 87 -23 106 -70v62h70v-413zM384 406v14c0 57 -37 97 -88 97c-55 0 -89 -41 -89 -104s34 -105 89 -105c49 0 88 41 88 98z" />
    <glyph glyph-name="r.ord" 
d="M169 263v300h71v-83c16 52 59 91 119 91c67 0 107 -48 107 -109l-63 -15c0 39 -23 65 -67 65c-27 0 -50 -13 -69 -39c-18 -26 -27 -56 -27 -89v-121h-71z" />
    <glyph glyph-name="s.ord" 
d="M149 323l45 40c20 -36 67 -57 115 -57c49 0 73 13 73 38c0 17 -15 28 -45 34l-74 15c-64 11 -96 40 -96 86c0 53 54 92 129 92c65 0 112 -20 142 -61l-45 -35c-20 29 -52 44 -97 44c-37 0 -63 -13 -63 -33c0 -17 14 -29 42 -35l87 -18c58 -12 87 -40 87 -84
c0 -57 -57 -94 -140 -94c-68 0 -132 25 -160 68z" />
    <glyph glyph-name="t.ord" 
d="M137 502v50h80v91l69 17v-108h149v-50h-149v-110c0 -49 29 -77 66 -77c41 0 64 22 85 69l38 -52c-21 -44 -68 -77 -128 -77c-76 0 -130 46 -130 130v117h-80z" />
    <glyph glyph-name="u.ord" 
d="M379 404v159h71v-300h-71v59c-16 -39 -58 -67 -107 -67c-75 0 -111 48 -111 121v187h71v-175c0 -48 23 -77 66 -77c48 0 81 38 81 93z" />
    <glyph glyph-name="v.ord" 
d="M478 563l-135 -300h-71l-137 300h77l97 -227h3l97 227h69z" />
    <glyph glyph-name="w.ord" 
d="M279 563h60l50 -220h2l46 220h63l-71 -300h-67l-53 224h-3l-53 -224h-67l-71 300h67l46 -220h3z" />
    <glyph glyph-name="x.ord" 
d="M306 375l-99 -112h-78l138 155l-127 145h83l86 -101l88 101h78l-127 -143l138 -157h-83z" />
    <glyph glyph-name="y.ord" 
d="M272 240l9 22l-141 301h77l98 -222h3l90 222h67l-130 -308c-31 -72 -66 -113 -125 -113c-49 0 -83 30 -90 74l55 29c0 -32 12 -48 37 -48c21 0 38 14 50 43z" />
    <glyph glyph-name="z.ord" 
d="M165 508v55h282v-51l-201 -194h211v-55h-297v50l198 195h-193z" />
    <glyph glyph-name="caron.Slovak" 
d="M368 636l-70 -208h-49l25 208h94z" />
    <glyph glyph-name="grave.cap" 
d="M407 702h-64l-136 141h122z" />
    <glyph glyph-name="acute.cap" 
d="M407 843l-137 -141h-63l77 141h123z" />
    <glyph glyph-name="circumflex.cap" 
d="M153 702l102 135h103l103 -135h-66l-88 78l-88 -78h-66z" />
    <glyph glyph-name="tilde.cap" 
d="M206 701h-62c0 77 35 137 92 137c20 0 44 -12 73 -35s50 -34 62 -34c21 0 33 22 36 67h62c0 -77 -36 -137 -93 -137c-19 0 -44 12 -73 35s-49 35 -61 35c-21 0 -33 -23 -36 -68z" />
    <glyph glyph-name="macron.cap" 
d="M459 707h-305v66h305v-66z" />
    <glyph glyph-name="breve.cap" 
d="M166 840h63c0 -51 26 -77 78 -77s78 26 78 77h61c0 -85 -55 -140 -139 -140s-141 55 -141 140z" />
    <glyph glyph-name="dotaccent.cap" 
d="M363 705h-113v108h113v-108z" />
    <glyph glyph-name="dieresis.cap" 
d="M261 705h-99v106h99v-106zM451 705h-99v106h99v-106z" />
    <glyph glyph-name="ring.cap" 
d="M207 770c0 55 41 95 100 95s99 -40 99 -95c0 -56 -40 -96 -99 -96c-60 0 -100 40 -100 96zM257 770c0 -31 18 -50 50 -50c33 0 49 17 49 50c0 29 -17 49 -49 49s-50 -20 -50 -49z" />
    <glyph glyph-name="hungarumlaut.cap" 
d="M481 838l-127 -136h-58l75 136h110zM317 838l-127 -136h-57l74 136h110z" />
    <glyph glyph-name="caron.cap" 
d="M358 702h-103l-102 135h66l88 -78l88 78h66z" />
    <glyph glyph-name="zero.slash" 
d="M492 556c46 -57 69 -138 69 -241s-23 -184 -69 -241s-108 -86 -185 -86s-139 29 -185 86s-69 138 -69 241s23 184 69 241s108 86 185 86s139 -29 185 -86zM142 315c0 -91 16 -158 49 -202l192 442c-21 13 -47 19 -76 19c-105 0 -165 -88 -165 -259zM307 56
c105 0 165 87 165 259c0 91 -16 158 -48 201l-192 -441c21 -13 46 -19 75 -19z" />
  </font>
</defs>
</svg>
