<svg width="21" height="20" viewBox="0 0 21 20" fill="none" xmlns="http://www.w3.org/2000/svg">
<path d="M5.33121 19.692V7.04142H1.14448V19.692H5.33121ZM3.23838 5.31316C4.69837 5.31316 5.60714 4.34174 5.60714 3.1278C5.57994 1.88647 4.69843 0.942017 3.26609 0.942017C1.83398 0.942017 0.897461 1.88649 0.897461 3.1278C0.897461 4.3418 1.80601 5.31316 3.21105 5.31316H3.23825H3.23838ZM7.64855 19.692H11.8353V12.6273C11.8353 12.2492 11.8625 11.8715 11.973 11.6012C12.2757 10.8458 12.9646 10.0634 14.1212 10.0634C15.6362 10.0634 16.2422 11.2235 16.2422 12.9241V19.6919H20.4287V12.4382C20.4287 8.55243 18.3632 6.74442 15.6086 6.74442C13.35 6.74442 12.3583 8.01234 11.8074 8.8759H11.8354V7.04116H7.64864C7.70359 8.22822 7.64864 19.6918 7.64864 19.6918L7.64855 19.692Z" fill="#09F8BF"/>
</svg>
