<svg width="20" height="19" viewBox="0 0 20 19" fill="none" xmlns="http://www.w3.org/2000/svg">
<path d="M10.0201 6.44069C8.29864 6.44069 6.89378 7.84554 6.89378 9.56702C6.89378 11.2885 8.29864 12.6933 10.0201 12.6933C11.7416 12.6933 13.1464 11.2885 13.1464 9.56702C13.1464 7.84554 11.7416 6.44069 10.0201 6.44069ZM19.3968 9.56702C19.3968 8.27239 19.4085 6.98949 19.3358 5.69721C19.2631 4.1962 18.9207 2.86405 17.823 1.76643C16.7231 0.666472 15.3933 0.326398 13.8923 0.253693C12.5976 0.180987 11.3147 0.192714 10.0225 0.192714C8.72783 0.192714 7.44494 0.180987 6.15266 0.253693C4.65164 0.326398 3.31949 0.668817 2.22188 1.76643C1.12192 2.8664 0.781843 4.1962 0.709137 5.69721C0.636432 6.99184 0.648159 8.27474 0.648159 9.56702C0.648159 10.8593 0.636432 12.1445 0.709137 13.4368C0.781843 14.9378 1.12426 16.27 2.22188 17.3676C3.32184 18.4676 4.65164 18.8076 6.15266 18.8803C7.44728 18.953 8.73018 18.9413 10.0225 18.9413C11.3171 18.9413 12.6 18.953 13.8923 18.8803C15.3933 18.8076 16.7254 18.4652 17.823 17.3676C18.923 16.2676 19.2631 14.9378 19.3358 13.4368C19.4108 12.1445 19.3968 10.8616 19.3968 9.56702ZM10.0201 14.3773C7.35816 14.3773 5.20983 12.229 5.20983 9.56702C5.20983 6.90506 7.35816 4.75674 10.0201 4.75674C12.6821 4.75674 14.8304 6.90506 14.8304 9.56702C14.8304 12.229 12.6821 14.3773 10.0201 14.3773ZM15.0274 5.68314C14.4059 5.68314 13.904 5.18124 13.904 4.55973C13.904 3.93821 14.4059 3.43631 15.0274 3.43631C15.6489 3.43631 16.1508 3.93821 16.1508 4.55973C16.151 4.70731 16.1221 4.85348 16.0657 4.98986C16.0093 5.12624 15.9265 5.25016 15.8222 5.35452C15.7178 5.45887 15.5939 5.54161 15.4575 5.59801C15.3212 5.6544 15.175 5.68333 15.0274 5.68314Z" fill="#09F8BF"/>
</svg>
