<svg width="76" height="17" viewBox="0 0 76 17" fill="none" xmlns="http://www.w3.org/2000/svg">
<g clip-path="url(#clipText)">
<path d="M7.08838 16.2725H5.01807L0.769043 5.792H3.07959L6.06396 13.8755L9.0708 5.792H11.271L7.08838 16.2725Z" fill="white"/>
<path fill-rule="evenodd" clip-rule="evenodd" d="M15.2803 1.82569C15.2803 0.997566 14.627 0.344002 13.7988 0.344002C12.9922 0.344002 12.3389 0.997566 12.3389 1.82569C12.3389 2.63184 12.9922 3.28565 13.7988 3.28565C14.627 3.28565 15.2803 2.63184 15.2803 1.82569ZM12.7959 5.79127V16.2722H14.8232V5.79127H12.7959Z" fill="white"/>
<path d="M18.7456 12.8949C18.8765 13.9843 19.7046 14.8559 21.186 14.8559C22.3403 14.8559 22.9722 14.2023 22.9722 13.4613C22.9722 12.8075 22.4927 12.3066 21.6216 12.1105L19.8345 11.7182C18.2007 11.3695 17.2192 10.2585 17.2192 8.77652C17.2192 6.9899 18.897 5.465 20.9458 5.465C23.8218 5.465 24.7153 7.33829 24.9331 8.2753L23.1245 8.9506C23.0376 8.40616 22.6021 7.20768 20.9458 7.20768C19.8999 7.20768 19.2026 7.88321 19.2026 8.60221C19.2026 9.23429 19.5952 9.69181 20.4019 9.86612L22.1011 10.2365C23.9966 10.6505 24.9985 11.8056 24.9985 13.3525C24.9985 14.8341 23.7573 16.5993 21.1636 16.5993C18.2876 16.5993 17.0679 14.747 16.8931 13.5485L18.7456 12.8949Z" fill="white"/>
<path d="M30.9907 16.5996C28.5503 16.5996 27.0688 14.7691 27.0688 12.3941V5.792H29.1167V12.0889C29.1167 13.5274 29.771 14.791 31.4917 14.791C33.1479 14.791 33.9751 13.7012 33.9751 12.1108V5.792H36.0239V14.3335C36.0239 15.1607 36.0894 15.9024 36.1333 16.2725H34.1724C34.1284 16.0332 34.0845 15.4448 34.0845 15.0088C33.5181 16.0982 32.2104 16.5996 30.9907 16.5996Z" fill="white"/>
<path fill-rule="evenodd" clip-rule="evenodd" d="M44.4346 9.86612L41.6025 10.2802C39.7939 10.5417 38.4209 11.5876 38.4209 13.4613C38.4209 15.1173 39.7939 16.5993 41.9287 16.5993C43.8027 16.5993 44.8496 15.5968 45.3066 14.8559C45.3066 15.6186 45.3711 16.0109 45.415 16.2721H47.4199C47.377 16.0109 47.2891 15.4662 47.2891 14.5509V9.29972C47.2891 7.25138 46.0693 5.465 42.9316 5.465C40.666 5.465 38.8574 6.85904 38.6387 8.86368L40.5996 9.32145C40.7305 8.10099 41.5371 7.20768 42.9746 7.20768C44.5654 7.20768 45.2412 8.05753 45.2412 9.0817C45.2412 9.45206 45.0664 9.77896 44.4346 9.86612ZM45.2412 11.3044V11.7836C45.2412 14.0714 43.8896 14.8778 42.2129 14.8778C41.166 14.8778 40.5127 14.1369 40.5127 13.3525C40.5127 12.4154 41.166 11.9145 42.0381 11.7836L45.2412 11.3044Z" fill="white"/>
<path d="M50.0352 16.2726V0.497002H52.084V16.2726H50.0352Z" fill="white"/>
<path d="M54.3276 6.96833C54.3052 6.77205 54.3052 6.57624 54.3052 6.40193C54.3052 3.98323 56.0923 1.826 59.186 1.826C62.2153 1.826 63.9575 3.80891 63.9575 6.16218C63.9575 8.01448 62.9126 9.49617 61.3003 10.5201L58.5122 12.307C57.7046 12.8299 56.9849 13.418 56.7896 14.2896H64.0454V16.2725H54.1528C54.1958 13.963 55.1118 12.1981 57.5083 10.651L59.8618 9.12556C61.1909 8.27571 61.8013 7.27351 61.8013 6.18391C61.8013 4.89851 60.9292 3.70002 59.1431 3.70002C57.2915 3.70002 56.4185 4.98567 56.4185 6.59797C56.4185 6.79426 56.4419 7.01204 56.4624 7.22981L54.3276 6.96833Z" fill="white"/>
<path d="M68.3398 7.94914L72.5 4.11418H65.7461V2.153H75.333V4.07072L71.3018 7.79631C73.3721 7.79631 75.6602 9.19109 75.6602 12.089C75.6602 14.4635 73.8301 16.6213 70.5391 16.6213C67.2705 16.6213 65.4189 14.486 65.2881 12.1764L67.3799 11.6967C67.4668 13.5707 68.8184 14.7475 70.5176 14.7475C72.457 14.7475 73.5029 13.549 73.5029 12.1325C73.5029 10.2804 72.0215 9.49626 70.627 9.49626C70.1914 9.49626 69.7549 9.58342 69.3848 9.71404L68.3398 7.94914Z" fill="white"/>
</g>
<defs>
<clipPath id="clipText">
<rect x="0.769043" y="0.344002" width="74.8911" height="16.2773" fill="white"/>
</clipPath>
</defs>
</svg>
